<svg id="svg" version="1.1" xmlns="http://www.w3.org/2000/svg" xmlns:xlink="http://www.w3.org/1999/xlink" width="400" height="400" viewBox="0, 0, 400,400"><g id="svgg"><path id="path0" d="M269.200 59.200 C 269.200 59.441,267.541 59.600,265.024 59.600 C 257.144 59.600,260.058 60.362,268.686 60.558 C 278.100 60.771,282.426 61.097,282.980 61.632 C 283.493 62.129,286.000 62.102,286.000 61.600 C 286.000 61.380,285.640 61.200,285.200 61.200 C 284.760 61.200,284.400 61.020,284.400 60.800 C 284.400 60.580,284.040 60.400,283.600 60.400 C 283.160 60.400,282.800 60.220,282.800 60.000 C 282.800 59.780,282.440 59.600,282.000 59.600 C 281.560 59.600,281.200 59.420,281.200 59.200 C 281.200 58.951,278.933 58.800,275.200 58.800 C 271.467 58.800,269.200 58.951,269.200 59.200 M126.600 60.000 C 126.461 60.225,124.529 60.400,122.176 60.400 C 119.659 60.400,118.000 60.559,118.000 60.800 C 118.000 61.020,117.201 61.200,116.224 61.200 C 115.247 61.200,114.336 61.380,114.200 61.600 C 114.064 61.820,113.164 62.000,112.200 62.000 C 111.236 62.000,110.336 62.180,110.200 62.400 C 110.064 62.620,109.344 62.800,108.600 62.800 C 107.856 62.800,107.136 62.980,107.000 63.200 C 106.864 63.420,106.144 63.600,105.400 63.600 C 104.656 63.600,103.936 63.780,103.800 64.000 C 103.664 64.220,103.124 64.400,102.600 64.400 C 102.076 64.400,101.536 64.580,101.400 64.800 C 101.264 65.020,100.724 65.200,100.200 65.200 C 99.676 65.200,99.136 65.380,99.000 65.600 C 98.864 65.820,98.403 66.000,97.976 66.000 C 97.549 66.000,97.200 66.180,97.200 66.400 C 97.200 66.620,96.761 66.800,96.224 66.800 C 95.687 66.800,95.136 66.980,95.000 67.200 C 94.864 67.420,94.403 67.600,93.976 67.600 C 93.549 67.600,93.200 67.780,93.200 68.000 C 93.200 68.220,92.784 68.400,92.275 68.400 C 91.767 68.400,90.964 68.760,90.492 69.200 C 90.020 69.640,89.482 70.000,89.296 70.000 C 88.703 70.000,86.806 70.989,86.803 71.300 C 86.801 71.465,86.440 71.600,86.000 71.600 C 85.560 71.600,85.200 71.780,85.200 72.000 C 85.200 72.220,84.964 72.400,84.675 72.400 C 84.387 72.400,83.764 72.760,83.292 73.200 C 82.820 73.640,82.156 74.000,81.817 74.000 C 81.478 74.000,81.200 74.180,81.200 74.400 C 81.200 74.620,80.952 74.800,80.648 74.800 C 80.345 74.800,79.355 75.520,78.448 76.400 C 77.541 77.280,76.602 78.000,76.360 78.000 C 76.119 78.000,75.417 78.540,74.800 79.200 C 74.183 79.860,73.487 80.400,73.252 80.400 C 72.695 80.400,63.600 89.495,63.600 90.052 C 63.600 90.287,63.060 90.983,62.400 91.600 C 61.740 92.217,61.200 92.937,61.200 93.200 C 61.200 93.463,60.705 94.156,60.100 94.740 C 59.495 95.323,58.745 96.295,58.432 96.900 C 58.120 97.505,57.715 98.000,57.532 98.000 C 57.350 98.000,57.200 98.320,57.200 98.712 C 57.200 99.103,56.840 99.683,56.400 100.000 C 55.960 100.317,55.600 100.897,55.600 101.288 C 55.600 101.680,55.420 102.000,55.200 102.000 C 54.980 102.000,54.800 102.360,54.800 102.800 C 54.800 103.240,54.648 103.600,54.463 103.600 C 54.277 103.600,53.692 104.455,53.163 105.500 C 52.633 106.545,52.065 107.460,51.900 107.533 C 51.735 107.607,51.600 107.916,51.600 108.221 C 51.600 108.526,51.240 109.417,50.800 110.200 C 50.360 110.983,50.000 111.979,50.000 112.412 C 50.000 112.845,49.820 113.200,49.600 113.200 C 49.380 113.200,49.200 113.560,49.200 114.000 C 49.200 114.440,49.020 114.800,48.800 114.800 C 48.580 114.800,48.400 115.160,48.400 115.600 C 48.400 116.040,48.220 116.400,48.000 116.400 C 47.780 116.400,47.600 116.940,47.600 117.600 C 47.600 118.260,47.420 118.800,47.200 118.800 C 46.980 118.800,46.800 119.149,46.800 119.576 C 46.800 120.003,46.620 120.464,46.400 120.600 C 46.180 120.736,46.000 121.366,46.000 122.000 C 46.000 122.634,45.820 123.264,45.600 123.400 C 45.380 123.536,45.200 124.076,45.200 124.600 C 45.200 125.124,45.020 125.664,44.800 125.800 C 44.580 125.936,44.400 126.577,44.400 127.224 C 44.400 127.871,44.220 128.400,44.000 128.400 C 43.780 128.400,43.600 128.929,43.600 129.576 C 43.600 130.223,43.420 130.864,43.200 131.000 C 42.980 131.136,42.800 131.856,42.800 132.600 C 42.800 133.344,42.620 134.064,42.400 134.200 C 42.180 134.336,42.000 135.056,42.000 135.800 C 42.000 136.544,41.820 137.264,41.600 137.400 C 41.380 137.536,41.200 138.447,41.200 139.424 C 41.200 140.401,41.020 141.200,40.800 141.200 C 40.580 141.200,40.400 142.089,40.400 143.176 C 40.400 144.263,40.220 145.264,40.000 145.400 C 39.780 145.536,39.600 146.706,39.600 148.000 C 39.600 149.294,39.420 150.464,39.200 150.600 C 38.980 150.736,38.800 152.097,38.800 153.624 C 38.800 155.208,38.628 156.400,38.400 156.400 C 38.151 156.400,38.000 158.659,38.000 162.376 C 38.000 165.929,37.838 168.453,37.600 168.600 C 37.079 168.922,37.079 173.878,37.600 174.200 C 37.825 174.339,38.000 176.263,38.000 178.600 C 38.000 180.937,38.175 182.861,38.400 183.000 C 38.620 183.136,38.800 184.306,38.800 185.600 C 38.800 186.894,38.980 188.064,39.200 188.200 C 39.420 188.336,39.600 189.236,39.600 190.200 C 39.600 191.164,39.780 192.064,40.000 192.200 C 40.220 192.336,40.400 193.056,40.400 193.800 C 40.400 194.544,40.580 195.264,40.800 195.400 C 41.020 195.536,41.200 196.177,41.200 196.824 C 41.200 197.471,41.380 198.000,41.600 198.000 C 41.820 198.000,42.000 198.619,42.000 199.376 C 42.000 200.133,42.180 200.864,42.400 201.000 C 42.620 201.136,42.800 201.597,42.800 202.024 C 42.800 202.451,42.980 202.800,43.200 202.800 C 43.420 202.800,43.600 203.340,43.600 204.000 C 43.600 204.660,43.780 205.200,44.000 205.200 C 44.220 205.200,44.400 205.740,44.400 206.400 C 44.400 207.060,44.580 207.600,44.800 207.600 C 45.020 207.600,45.200 207.960,45.200 208.400 C 45.200 208.840,45.380 209.200,45.600 209.200 C 45.820 209.200,46.000 209.639,46.000 210.176 C 46.000 210.713,46.180 211.264,46.400 211.400 C 46.620 211.536,46.800 211.997,46.800 212.424 C 46.800 212.851,46.980 213.200,47.200 213.200 C 47.420 213.200,47.600 213.560,47.600 214.000 C 47.600 214.440,47.780 214.800,48.000 214.800 C 48.220 214.800,48.400 215.160,48.400 215.600 C 48.400 216.040,48.580 216.400,48.800 216.400 C 49.020 216.400,49.200 216.760,49.200 217.200 C 49.200 217.640,49.380 218.000,49.600 218.000 C 49.820 218.000,50.000 218.360,50.000 218.800 C 50.000 219.240,50.180 219.600,50.400 219.600 C 50.620 219.600,50.800 219.960,50.800 220.400 C 50.800 220.840,50.980 221.200,51.200 221.200 C 51.420 221.200,51.600 221.478,51.600 221.817 C 51.600 222.156,51.960 222.820,52.400 223.292 C 52.840 223.764,53.200 224.387,53.200 224.675 C 53.200 224.964,53.380 225.200,53.600 225.200 C 53.820 225.200,54.000 225.560,54.000 226.000 C 54.000 226.440,54.180 226.800,54.400 226.800 C 54.620 226.800,54.800 227.036,54.800 227.325 C 54.800 227.613,55.160 228.236,55.600 228.708 C 56.040 229.180,56.400 229.804,56.400 230.095 C 56.400 230.386,56.760 230.883,57.200 231.200 C 57.640 231.517,58.000 232.057,58.000 232.400 C 58.000 232.743,58.360 233.283,58.800 233.600 C 59.240 233.917,59.600 234.457,59.600 234.800 C 59.600 235.143,59.960 235.683,60.400 236.000 C 60.840 236.317,61.200 236.857,61.200 237.200 C 61.200 237.543,61.560 238.083,62.000 238.400 C 62.440 238.717,62.800 239.225,62.800 239.528 C 62.800 239.831,63.340 240.583,64.000 241.200 C 64.660 241.817,65.200 242.497,65.200 242.712 C 65.200 242.927,65.920 243.845,66.800 244.752 C 67.680 245.659,68.400 246.595,68.400 246.832 C 68.400 247.069,69.120 247.954,70.000 248.800 C 70.880 249.646,71.600 250.516,71.600 250.734 C 71.600 250.952,72.680 252.227,74.000 253.568 C 75.320 254.908,76.400 256.172,76.400 256.375 C 76.400 256.839,96.646 277.200,97.107 277.200 C 97.293 277.200,99.125 278.820,101.178 280.800 C 103.231 282.780,105.080 284.400,105.287 284.400 C 105.493 284.400,106.354 285.120,107.200 286.000 C 108.046 286.880,108.904 287.600,109.108 287.600 C 109.311 287.600,110.613 288.680,112.000 290.000 C 113.387 291.320,114.689 292.400,114.892 292.400 C 115.096 292.400,115.954 293.120,116.800 294.000 C 117.646 294.880,118.549 295.600,118.808 295.600 C 119.067 295.600,119.783 296.140,120.400 296.800 C 121.017 297.460,121.737 298.000,122.000 298.000 C 122.263 298.000,122.983 298.540,123.600 299.200 C 124.217 299.860,124.881 300.400,125.076 300.400 C 125.272 300.400,126.228 301.120,127.200 302.000 C 128.172 302.880,129.160 303.600,129.396 303.600 C 129.631 303.600,130.083 303.960,130.400 304.400 C 130.717 304.840,131.209 305.200,131.492 305.200 C 131.775 305.200,132.572 305.740,133.263 306.400 C 133.954 307.060,134.722 307.600,134.971 307.600 C 135.220 307.600,135.683 307.960,136.000 308.400 C 136.317 308.840,136.809 309.200,137.092 309.200 C 137.375 309.200,138.172 309.740,138.863 310.400 C 139.554 311.060,140.362 311.600,140.659 311.600 C 140.957 311.600,141.200 311.750,141.200 311.932 C 141.200 312.115,141.695 312.520,142.300 312.832 C 142.905 313.145,143.749 313.715,144.175 314.100 C 144.602 314.485,145.147 314.800,145.387 314.800 C 145.627 314.800,146.083 315.160,146.400 315.600 C 146.717 316.040,147.257 316.400,147.600 316.400 C 147.943 316.400,148.483 316.760,148.800 317.200 C 149.117 317.640,149.657 318.000,150.000 318.000 C 150.343 318.000,150.883 318.360,151.200 318.800 C 151.517 319.240,152.057 319.600,152.400 319.600 C 152.743 319.600,153.283 319.960,153.600 320.400 C 153.917 320.840,154.457 321.200,154.800 321.200 C 155.143 321.200,155.683 321.560,156.000 322.000 C 156.317 322.440,156.857 322.800,157.200 322.800 C 157.543 322.800,158.083 323.160,158.400 323.600 C 158.717 324.040,159.214 324.400,159.505 324.400 C 159.796 324.400,160.420 324.760,160.892 325.200 C 161.364 325.640,161.987 326.000,162.275 326.000 C 162.564 326.000,162.800 326.180,162.800 326.400 C 162.800 326.620,163.036 326.800,163.325 326.800 C 163.613 326.800,164.236 327.160,164.708 327.600 C 165.180 328.040,165.762 328.400,166.000 328.400 C 166.238 328.400,166.820 328.760,167.292 329.200 C 167.764 329.640,168.387 330.000,168.675 330.000 C 168.964 330.000,169.200 330.180,169.200 330.400 C 169.200 330.620,169.478 330.800,169.817 330.800 C 170.156 330.800,170.820 331.160,171.292 331.600 C 171.764 332.040,172.387 332.400,172.675 332.400 C 172.964 332.400,173.200 332.580,173.200 332.800 C 173.200 333.020,173.560 333.200,174.000 333.200 C 174.440 333.200,174.800 333.350,174.800 333.532 C 174.800 333.715,175.295 334.120,175.900 334.432 C 176.505 334.745,177.349 335.315,177.775 335.700 C 178.202 336.085,178.787 336.400,179.075 336.400 C 179.364 336.400,179.600 336.580,179.600 336.800 C 179.600 337.020,179.960 337.200,180.400 337.200 C 180.840 337.200,181.200 337.380,181.200 337.600 C 181.200 337.820,181.478 338.000,181.817 338.000 C 182.156 338.000,182.820 338.360,183.292 338.800 C 183.764 339.240,184.387 339.600,184.675 339.600 C 184.964 339.600,185.200 339.780,185.200 340.000 C 185.200 340.220,185.560 340.400,186.000 340.400 C 186.440 340.400,186.800 340.580,186.800 340.800 C 186.800 341.020,187.160 341.200,187.600 341.200 C 188.040 341.200,188.400 341.380,188.400 341.600 C 188.400 341.820,188.720 342.000,189.112 342.000 C 189.503 342.000,190.083 342.360,190.400 342.800 C 190.717 343.240,191.214 343.600,191.505 343.600 C 191.796 343.600,192.420 343.960,192.892 344.400 C 193.364 344.840,194.041 345.200,194.396 345.200 C 195.230 345.200,197.193 346.111,197.197 346.500 C 197.199 346.665,197.335 346.800,197.500 346.800 C 197.665 346.800,197.756 323.020,197.702 293.956 L 197.603 241.111 195.817 241.040 C 192.507 240.908,192.120 240.189,189.619 229.500 C 189.169 227.575,188.440 224.470,188.000 222.600 C 187.560 220.730,186.840 217.670,186.400 215.800 C 185.960 213.930,185.240 210.870,184.800 209.000 C 184.360 207.130,183.649 204.115,183.221 202.300 C 182.793 200.485,182.192 197.930,181.886 196.622 C 181.188 193.636,180.534 193.345,180.211 195.876 C 180.076 196.934,179.805 198.880,179.610 200.200 C 179.414 201.520,179.050 204.220,178.800 206.200 C 178.550 208.180,178.189 210.880,177.997 212.200 C 177.618 214.806,177.030 219.074,176.400 223.800 C 176.180 225.450,175.808 228.195,175.572 229.900 C 175.337 231.605,174.983 234.170,174.786 235.600 C 174.589 237.030,174.241 239.595,174.014 241.300 C 173.361 246.191,172.782 250.398,172.403 253.000 C 172.211 254.320,171.853 257.020,171.607 259.000 C 170.866 264.965,170.432 266.659,169.373 267.718 C 167.646 269.445,164.706 269.518,162.899 267.877 C 161.980 267.043,161.728 266.386,160.373 261.300 C 159.948 259.705,159.226 257.005,158.768 255.300 C 158.311 253.595,157.785 251.570,157.600 250.800 C 157.415 250.030,156.889 248.005,156.432 246.300 C 154.758 240.061,154.026 237.301,152.800 232.600 C 151.574 227.899,150.842 225.139,149.168 218.900 C 148.711 217.195,148.186 215.170,148.002 214.400 C 147.817 213.630,147.427 212.100,147.133 211.000 L 146.600 209.000 118.400 208.800 C 91.122 208.607,90.157 208.574,88.881 207.802 C 85.715 205.888,85.583 202.084,88.614 200.100 L 89.989 199.200 120.657 199.200 L 151.324 199.200 152.687 200.239 C 154.297 201.467,154.519 201.978,156.069 208.000 C 157.205 212.418,157.817 214.735,159.632 221.500 C 160.089 223.205,160.615 225.230,160.800 226.000 C 160.985 226.770,161.524 228.840,161.998 230.600 C 162.472 232.360,163.157 235.015,163.520 236.500 C 164.505 240.531,164.738 239.977,166.003 230.600 C 166.970 223.426,167.264 221.290,167.597 219.000 C 167.789 217.680,168.150 214.980,168.400 213.000 C 168.650 211.020,169.011 208.320,169.203 207.000 C 169.539 204.692,169.885 202.173,170.783 195.500 C 171.012 193.795,171.392 191.005,171.628 189.300 C 171.863 187.595,172.217 185.030,172.414 183.600 C 172.611 182.170,172.959 179.605,173.186 177.900 C 175.128 163.351,175.088 163.497,177.480 162.261 C 179.501 161.217,180.984 161.411,182.488 162.915 C 183.940 164.367,183.818 163.949,188.019 181.900 C 188.469 183.825,188.998 186.030,189.194 186.800 C 189.389 187.570,189.752 189.100,190.000 190.200 C 190.248 191.300,190.608 192.830,190.800 193.600 C 190.992 194.370,191.352 195.900,191.600 197.000 C 191.848 198.100,192.211 199.630,192.406 200.400 C 192.602 201.170,193.140 203.420,193.603 205.400 C 195.542 213.705,195.588 213.773,196.330 209.500 C 196.608 207.905,197.015 205.786,197.235 204.792 C 197.489 203.644,197.666 183.336,197.718 149.192 L 197.800 95.400 198.960 95.484 C 199.915 95.552,200.478 95.164,202.148 93.284 C 207.210 87.586,215.190 80.052,219.718 76.696 C 220.863 75.847,222.340 74.717,223.000 74.184 C 223.660 73.651,224.425 73.211,224.700 73.207 C 224.975 73.203,225.200 73.050,225.200 72.868 C 225.200 72.685,225.695 72.285,226.300 71.980 C 226.905 71.674,228.120 70.962,229.000 70.397 C 230.541 69.407,232.244 68.557,236.300 66.756 C 237.345 66.292,238.513 65.752,238.895 65.556 C 239.277 65.360,239.941 65.200,240.371 65.200 C 240.801 65.200,241.264 65.020,241.400 64.800 C 241.536 64.580,242.076 64.400,242.600 64.400 C 243.124 64.400,243.664 64.220,243.800 64.000 C 243.936 63.780,244.577 63.600,245.224 63.600 C 245.871 63.600,246.400 63.420,246.400 63.200 C 246.400 62.980,247.019 62.800,247.776 62.800 C 248.533 62.800,249.264 62.620,249.400 62.400 C 249.536 62.180,250.256 62.000,251.000 62.000 C 251.744 62.000,252.464 61.820,252.600 61.600 C 252.755 61.349,251.871 61.200,250.224 61.200 C 248.741 61.200,247.600 61.374,247.600 61.600 C 247.600 61.820,246.700 62.000,245.600 62.000 C 244.500 62.000,243.600 62.180,243.600 62.400 C 243.600 62.620,242.700 62.800,241.600 62.800 C 240.500 62.800,239.600 62.980,239.600 63.200 C 239.600 63.420,238.920 63.600,238.088 63.600 C 237.035 63.600,236.402 63.843,236.000 64.400 C 235.683 64.840,235.103 65.200,234.712 65.200 C 234.320 65.200,234.000 65.380,234.000 65.600 C 234.000 65.820,233.640 66.000,233.200 66.000 C 232.760 66.000,232.400 66.180,232.400 66.400 C 232.400 66.620,231.860 66.800,231.200 66.800 C 230.540 66.800,230.000 66.980,230.000 67.200 C 230.000 67.420,229.280 67.600,228.400 67.600 C 227.520 67.600,226.800 67.780,226.800 68.000 C 226.800 68.220,226.337 68.400,225.771 68.400 C 224.701 68.400,223.600 69.211,223.600 70.000 C 223.600 70.662,222.561 71.600,221.829 71.600 C 221.483 71.600,221.200 71.780,221.200 72.000 C 221.200 72.220,220.880 72.400,220.488 72.400 C 220.097 72.400,219.517 72.760,219.200 73.200 C 218.883 73.640,218.343 74.000,218.000 74.000 C 217.657 74.000,217.117 74.360,216.800 74.800 C 216.483 75.240,215.943 75.600,215.600 75.600 C 215.257 75.600,214.717 75.960,214.400 76.400 C 214.083 76.840,213.543 77.200,213.200 77.200 C 212.857 77.200,212.317 77.560,212.000 78.000 C 211.683 78.440,211.187 78.800,210.898 78.800 C 210.271 78.800,207.600 81.391,207.600 82.000 C 207.600 82.558,204.954 85.200,204.395 85.200 C 203.579 85.200,202.000 87.165,202.000 88.182 C 202.000 88.742,201.820 89.200,201.600 89.200 C 201.380 89.200,201.200 89.920,201.200 90.800 C 201.200 92.311,201.133 92.400,200.000 92.400 C 199.340 92.400,198.800 92.220,198.800 92.000 C 198.800 91.780,198.337 91.600,197.771 91.600 C 196.715 91.600,195.444 90.689,195.885 90.249 C 196.144 89.989,192.033 86.039,191.478 86.014 C 191.301 86.006,190.131 84.961,188.878 83.690 C 187.625 82.420,185.970 80.936,185.200 80.392 C 184.430 79.849,183.103 78.728,182.252 77.902 C 181.400 77.076,180.544 76.400,180.348 76.400 C 180.153 76.400,179.428 75.860,178.737 75.200 C 178.046 74.540,177.238 74.000,176.941 74.000 C 176.643 74.000,176.400 73.862,176.400 73.694 C 176.400 73.526,175.680 72.944,174.800 72.400 C 173.920 71.856,173.200 71.274,173.200 71.106 C 173.200 70.938,172.840 70.800,172.400 70.800 C 171.960 70.800,171.600 70.620,171.600 70.400 C 171.600 70.180,171.322 70.000,170.983 70.000 C 170.644 70.000,169.980 69.640,169.508 69.200 C 169.036 68.760,168.368 68.396,168.025 68.391 C 167.681 68.386,166.950 68.030,166.400 67.600 C 165.850 67.170,164.995 66.814,164.500 66.809 C 164.005 66.804,163.600 66.620,163.600 66.400 C 163.600 66.180,163.240 66.000,162.800 66.000 C 162.360 66.000,162.000 65.820,162.000 65.600 C 162.000 65.380,161.460 65.200,160.800 65.200 C 160.140 65.200,159.600 65.020,159.600 64.800 C 159.600 64.580,159.251 64.400,158.824 64.400 C 158.397 64.400,157.936 64.220,157.800 64.000 C 157.664 63.780,156.944 63.600,156.200 63.600 C 155.456 63.600,154.736 63.420,154.600 63.200 C 154.464 62.980,153.913 62.800,153.376 62.800 C 152.839 62.800,152.400 62.620,152.400 62.400 C 152.400 62.180,151.691 62.000,150.824 62.000 C 149.957 62.000,149.136 61.820,149.000 61.600 C 148.864 61.380,148.054 61.200,147.200 61.200 C 146.346 61.200,145.536 61.020,145.400 60.800 C 145.264 60.580,143.644 60.400,141.800 60.400 C 139.956 60.400,138.336 60.220,138.200 60.000 C 138.054 59.764,135.670 59.600,132.400 59.600 C 129.130 59.600,126.746 59.764,126.600 60.000 M287.000 62.400 C 287.136 62.620,288.047 62.800,289.024 62.800 C 290.001 62.800,290.800 62.980,290.800 63.200 C 290.800 63.420,291.329 63.600,291.976 63.600 C 292.623 63.600,293.264 63.780,293.400 64.000 C 293.536 64.220,294.166 64.400,294.800 64.400 C 295.434 64.400,296.064 64.580,296.200 64.800 C 296.336 65.020,296.876 65.200,297.400 65.200 C 297.924 65.200,298.464 65.380,298.600 65.600 C 298.736 65.820,299.377 66.000,300.024 66.000 C 300.671 66.000,301.200 66.180,301.200 66.400 C 301.200 66.620,301.560 66.800,302.000 66.800 C 302.440 66.800,302.800 66.704,302.800 66.587 C 302.800 66.091,299.975 63.600,299.413 63.600 C 299.076 63.600,298.800 63.420,298.800 63.200 C 298.800 62.980,298.440 62.800,298.000 62.800 C 297.560 62.800,297.200 62.620,297.200 62.400 C 297.200 62.154,295.192 62.000,291.976 62.000 C 288.596 62.000,286.840 62.141,287.000 62.400 M307.000 68.800 C 306.864 69.020,307.087 69.200,307.496 69.200 C 307.905 69.200,308.440 69.400,308.685 69.645 C 308.930 69.890,309.364 70.012,309.650 69.917 C 309.945 69.818,309.589 69.453,308.824 69.072 C 307.238 68.281,307.314 68.292,307.000 68.800 M328.202 82.802 C 328.602 83.244,329.011 83.522,329.112 83.421 C 329.328 83.205,328.188 82.000,327.767 82.000 C 327.607 82.000,327.803 82.361,328.202 82.802 M333.200 87.829 C 333.200 88.127,334.275 89.200,334.575 89.200 C 334.702 89.200,334.582 88.840,334.307 88.400 C 333.838 87.649,333.200 87.320,333.200 87.829 M361.200 169.753 C 361.200 170.303,361.380 170.864,361.600 171.000 C 361.826 171.140,362.000 170.812,362.000 170.247 C 362.000 169.697,361.820 169.136,361.600 169.000 C 361.374 168.860,361.200 169.188,361.200 169.753 M361.500 172.533 C 361.027 173.687,361.117 175.043,361.631 174.529 C 361.868 174.292,362.003 173.581,361.931 172.949 C 361.824 172.006,361.746 171.931,361.500 172.533 M319.402 259.598 C 319.003 260.039,318.807 260.400,318.967 260.400 C 319.388 260.400,320.528 259.195,320.312 258.979 C 320.211 258.878,319.802 259.156,319.402 259.598 M304.654 274.255 C 304.023 274.797,303.608 275.341,303.730 275.463 C 303.852 275.585,304.432 275.205,305.018 274.618 C 306.400 273.236,306.139 272.976,304.654 274.255 " stroke="none" fill="#eb1c24" fill-rule="evenodd"></path><path id="path1" d="M211.331 139.364 C 209.347 140.257,209.507 139.736,206.836 154.000 C 206.609 155.210,206.252 157.100,206.042 158.200 C 205.832 159.300,205.453 161.370,205.200 162.800 C 204.739 165.404,204.430 167.087,203.660 171.200 C 203.433 172.410,203.063 174.390,202.836 175.600 C 202.609 176.810,202.252 178.700,202.042 179.800 C 201.832 180.900,201.453 182.970,201.200 184.400 C 200.661 187.444,200.234 189.756,199.649 192.800 C 198.918 196.611,198.766 197.359,198.396 199.000 C 197.689 202.133,196.560 208.045,196.124 210.900 C 195.687 213.759,195.418 213.173,193.603 205.400 C 193.140 203.420,192.602 201.170,192.406 200.400 C 192.211 199.630,191.848 198.100,191.600 197.000 C 191.352 195.900,190.992 194.370,190.800 193.600 C 190.608 192.830,190.248 191.300,190.000 190.200 C 189.752 189.100,189.389 187.570,189.194 186.800 C 188.998 186.030,188.469 183.825,188.019 181.900 C 183.818 163.949,183.940 164.367,182.488 162.915 C 179.635 160.061,175.707 161.853,174.854 166.398 C 174.469 168.453,174.271 169.816,173.183 177.900 C 172.748 181.135,172.195 185.185,171.586 189.600 C 171.389 191.030,171.041 193.595,170.814 195.300 C 170.161 200.191,169.582 204.398,169.203 207.000 C 169.011 208.320,168.650 211.020,168.400 213.000 C 168.150 214.980,167.789 217.680,167.597 219.000 C 167.167 221.955,166.496 226.818,165.969 230.800 C 165.301 235.844,164.684 239.200,164.426 239.200 C 164.291 239.200,163.883 237.985,163.520 236.500 C 163.157 235.015,162.472 232.360,161.998 230.600 C 161.524 228.840,160.985 226.770,160.800 226.000 C 160.615 225.230,160.089 223.205,159.632 221.500 C 157.817 214.735,157.205 212.418,156.069 208.000 C 154.519 201.978,154.297 201.467,152.687 200.239 L 151.324 199.200 120.657 199.200 L 89.989 199.200 88.614 200.100 C 85.583 202.084,85.715 205.888,88.881 207.802 C 90.157 208.574,91.122 208.607,118.400 208.800 L 146.600 209.000 147.133 211.000 C 147.427 212.100,147.817 213.630,148.002 214.400 C 148.186 215.170,148.711 217.195,149.168 218.900 C 150.842 225.139,151.574 227.899,152.800 232.600 C 154.026 237.301,154.758 240.061,156.432 246.300 C 156.889 248.005,157.415 250.030,157.600 250.800 C 157.785 251.570,158.311 253.595,158.768 255.300 C 159.226 257.005,159.948 259.705,160.373 261.300 C 161.728 266.386,161.980 267.043,162.899 267.877 C 164.706 269.518,167.646 269.445,169.373 267.718 C 170.432 266.659,170.866 264.965,171.607 259.000 C 171.853 257.020,172.211 254.320,172.403 253.000 C 172.761 250.541,173.280 246.780,174.017 241.300 C 174.915 234.627,175.261 232.108,175.597 229.800 C 175.789 228.480,176.150 225.780,176.400 223.800 C 176.650 221.820,177.011 219.120,177.203 217.800 C 177.582 215.198,178.161 210.991,178.814 206.100 C 179.041 204.395,179.392 201.830,179.593 200.400 C 179.793 198.970,180.070 196.934,180.207 195.876 C 180.535 193.346,181.188 193.636,181.886 196.622 C 182.192 197.930,182.793 200.485,183.221 202.300 C 183.649 204.115,184.360 207.130,184.800 209.000 C 185.240 210.870,185.960 213.930,186.400 215.800 C 186.840 217.670,187.560 220.730,188.000 222.600 C 188.440 224.470,189.169 227.575,189.619 229.500 C 192.151 240.321,192.528 241.000,196.000 241.000 C 199.187 241.000,200.149 239.633,201.209 233.600 C 201.460 232.170,201.822 230.190,202.013 229.200 C 202.963 224.290,203.753 220.055,204.400 216.400 C 204.653 214.970,205.032 212.900,205.242 211.800 C 205.452 210.700,205.788 208.900,205.988 207.800 C 206.188 206.700,206.554 204.720,206.800 203.400 C 207.046 202.080,207.412 200.100,207.612 199.000 C 207.812 197.900,208.148 196.100,208.358 195.000 C 208.568 193.900,208.947 191.830,209.200 190.400 C 209.453 188.970,209.813 186.990,210.000 186.000 C 210.187 185.010,210.545 183.030,210.796 181.600 C 211.048 180.170,211.412 178.280,211.606 177.400 C 211.800 176.520,212.181 174.585,212.453 173.100 C 213.189 169.075,213.671 169.797,214.788 176.600 C 215.287 179.637,215.673 181.727,216.395 185.307 C 216.651 186.576,216.743 188.150,216.599 188.804 C 216.414 189.648,216.531 190.188,217.002 190.659 C 217.458 191.115,217.597 191.711,217.446 192.562 C 217.309 193.336,217.447 194.091,217.813 194.576 C 218.136 195.004,218.400 195.883,218.400 196.530 C 218.400 197.177,218.566 198.358,218.769 199.154 C 218.971 199.949,219.344 201.860,219.597 203.400 C 220.020 205.973,220.253 207.279,221.205 212.400 C 221.389 213.390,221.741 215.370,221.988 216.800 C 222.235 218.230,222.600 220.300,222.800 221.400 C 223.000 222.500,223.365 224.570,223.612 226.000 C 223.859 227.430,224.213 229.410,224.400 230.400 C 224.587 231.390,224.949 233.370,225.205 234.800 C 225.639 237.227,225.911 238.761,226.799 243.800 C 226.993 244.900,227.335 246.790,227.558 248.000 C 227.781 249.210,228.165 251.370,228.412 252.800 C 228.659 254.230,229.013 256.210,229.200 257.200 C 229.387 258.190,229.744 260.170,229.994 261.600 C 231.018 267.462,231.953 268.800,235.023 268.800 C 238.067 268.800,238.984 267.559,240.345 261.600 C 240.571 260.610,241.136 258.180,241.600 256.200 C 242.064 254.220,242.614 251.835,242.822 250.900 C 243.030 249.965,243.370 248.435,243.578 247.500 C 243.786 246.565,244.336 244.180,244.800 242.200 C 245.264 240.220,245.804 237.880,246.000 237.000 C 246.196 236.120,246.736 233.780,247.200 231.800 C 247.664 229.820,248.204 227.480,248.400 226.600 C 248.596 225.720,249.136 223.380,249.600 221.400 C 250.064 219.420,250.606 217.080,250.804 216.200 C 252.418 209.035,252.937 206.881,253.237 206.100 L 253.583 205.200 281.778 205.200 L 309.972 205.200 311.386 203.959 C 313.876 201.773,313.216 198.045,310.091 196.646 C 307.508 195.488,248.922 195.855,247.329 197.039 C 245.731 198.226,245.468 199.093,241.975 214.700 C 241.741 215.745,241.392 217.230,241.200 218.000 C 240.875 219.302,240.590 220.549,239.622 224.900 C 239.414 225.835,238.864 228.220,238.400 230.200 C 237.936 232.180,237.375 234.610,237.153 235.600 C 235.915 241.121,235.542 241.461,234.849 237.700 C 234.576 236.215,234.196 234.190,234.006 233.200 C 233.816 232.210,233.459 230.230,233.212 228.800 C 232.965 227.370,232.600 225.300,232.400 224.200 C 232.200 223.100,231.835 221.030,231.588 219.600 C 231.341 218.170,230.987 216.190,230.800 215.200 C 230.459 213.393,229.865 210.098,229.142 206.000 C 228.674 203.349,228.134 200.336,227.618 197.500 C 227.408 196.345,227.035 194.230,226.788 192.800 C 226.541 191.370,226.187 189.390,226.000 188.400 C 225.813 187.410,225.459 185.430,225.212 184.000 C 224.965 182.570,224.581 180.410,224.358 179.200 C 223.806 176.206,223.322 173.496,222.788 170.400 C 222.541 168.970,222.187 166.990,222.000 166.000 C 221.813 165.010,221.453 163.030,221.200 161.600 C 220.947 160.170,220.587 158.190,220.400 157.200 C 220.213 156.210,219.859 154.230,219.612 152.800 C 217.836 142.509,217.613 141.626,216.464 140.352 C 215.190 138.939,213.148 138.546,211.331 139.364 " stroke="none" fill="#070506" fill-rule="evenodd"></path><path id="path2" d="M255.832 61.862 C 255.718 62.158,255.048 62.400,254.341 62.400 C 253.635 62.400,252.504 62.568,251.828 62.773 C 251.153 62.978,249.880 63.331,249.000 63.558 C 231.548 68.059,215.932 78.543,201.664 95.338 C 200.605 96.585,200.173 96.830,199.379 96.630 L 198.400 96.385 198.433 145.492 C 198.468 196.828,198.438 196.003,199.975 187.400 C 200.250 185.860,200.818 182.755,201.237 180.500 C 202.304 174.766,203.521 168.201,204.000 165.600 C 204.223 164.390,204.764 161.465,205.203 159.100 C 205.641 156.735,206.359 152.865,206.797 150.500 C 207.236 148.135,207.802 145.120,208.055 143.800 C 208.951 139.121,211.938 137.033,215.358 138.695 C 217.623 139.795,218.186 141.073,219.405 147.877 C 220.862 156.008,221.224 158.005,221.600 160.000 C 222.094 162.619,222.654 165.748,224.000 173.400 C 225.173 180.073,225.700 183.007,226.441 187.000 C 226.645 188.100,227.348 192.060,228.004 195.800 C 229.319 203.305,229.890 206.494,230.400 209.200 C 230.894 211.819,231.454 214.948,232.800 222.600 C 234.358 231.459,234.775 233.740,235.323 236.400 L 235.777 238.600 236.244 236.600 C 237.214 232.453,239.307 223.346,239.600 222.000 C 239.768 221.230,240.466 218.170,241.152 215.200 C 241.838 212.230,242.918 207.550,243.552 204.800 C 244.981 198.598,245.225 197.987,246.796 196.665 L 248.061 195.600 278.931 195.601 C 308.842 195.603,309.840 195.627,311.081 196.384 C 314.296 198.345,314.424 202.937,311.320 205.041 C 310.253 205.764,308.855 205.810,282.000 206.000 L 253.800 206.200 253.143 209.000 C 252.782 210.540,251.909 214.320,251.202 217.400 C 250.496 220.480,249.566 224.530,249.136 226.400 C 248.706 228.270,248.105 230.880,247.802 232.200 C 247.498 233.520,246.978 235.770,246.646 237.200 C 246.313 238.630,245.673 241.420,245.222 243.400 C 244.771 245.380,243.881 249.250,243.244 252.000 C 242.607 254.750,241.587 259.160,240.978 261.800 C 239.539 268.036,238.098 269.827,234.778 269.507 C 230.571 269.103,230.614 269.215,227.200 249.800 C 226.027 243.127,225.500 240.193,224.759 236.200 C 224.555 235.100,223.852 231.140,223.196 227.400 C 221.881 219.895,221.310 216.706,220.800 214.000 C 220.613 213.010,220.266 211.120,220.028 209.800 C 219.790 208.480,219.133 204.880,218.568 201.800 C 218.004 198.720,217.441 195.521,217.317 194.690 C 217.193 193.860,216.936 193.084,216.746 192.967 C 216.556 192.849,216.399 191.818,216.398 190.676 C 216.397 189.534,216.237 187.970,216.042 187.200 C 215.848 186.430,215.185 182.869,214.568 179.286 C 213.450 172.782,213.143 172.206,212.605 175.600 C 212.448 176.590,211.978 179.200,211.561 181.400 C 211.144 183.600,210.621 186.390,210.399 187.600 C 210.177 188.810,209.636 191.735,209.197 194.100 C 208.759 196.465,208.041 200.335,207.603 202.700 C 207.164 205.065,206.610 208.080,206.372 209.400 C 206.134 210.720,205.783 212.610,205.593 213.600 C 205.402 214.590,204.867 217.470,204.405 220.000 C 201.435 236.244,201.146 237.667,200.581 238.801 C 200.306 239.351,199.703 240.144,199.241 240.563 L 198.400 241.324 198.413 293.362 C 198.426 348.241,198.379 346.800,200.144 346.800 C 200.505 346.800,200.800 346.633,200.800 346.428 C 200.800 346.223,201.655 345.638,202.700 345.128 C 203.745 344.618,204.660 344.065,204.733 343.900 C 204.807 343.735,205.192 343.600,205.591 343.600 C 205.989 343.600,206.422 343.319,206.554 342.975 C 206.686 342.631,206.969 342.457,207.183 342.589 C 207.396 342.721,207.937 342.463,208.385 342.015 C 208.833 341.567,209.451 341.200,209.757 341.200 C 210.064 341.200,210.417 340.933,210.542 340.607 C 210.667 340.280,211.023 340.111,211.333 340.230 C 211.643 340.349,212.009 340.154,212.146 339.798 C 212.282 339.441,212.569 339.257,212.783 339.389 C 212.996 339.521,213.537 339.263,213.985 338.815 C 214.433 338.367,215.051 338.000,215.357 338.000 C 215.664 338.000,216.017 337.733,216.142 337.407 C 216.267 337.080,216.623 336.911,216.933 337.030 C 217.243 337.149,217.609 336.954,217.746 336.598 C 217.882 336.241,218.169 336.057,218.383 336.189 C 218.596 336.321,219.137 336.063,219.585 335.615 C 220.033 335.167,220.651 334.800,220.957 334.800 C 221.264 334.800,221.618 334.530,221.745 334.200 C 221.871 333.870,222.223 333.600,222.525 333.600 C 222.828 333.600,223.398 333.244,223.791 332.809 C 224.185 332.375,224.656 332.111,224.839 332.224 C 225.021 332.337,225.537 332.063,225.985 331.615 C 226.433 331.167,227.051 330.800,227.357 330.800 C 227.664 330.800,228.022 330.519,228.154 330.175 C 228.286 329.831,228.569 329.657,228.783 329.789 C 228.996 329.921,229.537 329.663,229.985 329.215 C 230.433 328.767,231.051 328.400,231.357 328.400 C 231.664 328.400,232.022 328.119,232.154 327.775 C 232.286 327.431,232.590 327.270,232.829 327.418 C 233.068 327.566,233.530 327.307,233.855 326.843 C 234.180 326.380,234.795 326.000,235.223 326.000 C 235.650 326.000,236.000 325.816,236.000 325.591 C 236.000 325.367,236.495 324.965,237.100 324.700 C 237.705 324.434,238.346 323.984,238.525 323.700 C 238.703 323.416,239.025 323.292,239.241 323.425 C 239.456 323.558,239.999 323.200,240.448 322.630 C 240.897 322.059,241.437 321.699,241.648 321.830 C 241.859 321.960,242.399 321.600,242.848 321.030 C 243.297 320.459,243.837 320.099,244.048 320.230 C 244.259 320.360,244.799 320.000,245.248 319.430 C 245.697 318.859,246.237 318.499,246.448 318.630 C 246.659 318.760,247.199 318.400,247.648 317.830 C 248.097 317.259,248.637 316.899,248.848 317.030 C 249.059 317.160,249.599 316.800,250.048 316.230 C 250.497 315.659,251.039 315.301,251.253 315.433 C 251.467 315.565,251.973 315.292,252.378 314.825 C 253.311 313.750,256.441 311.617,257.100 311.607 C 257.375 311.603,257.600 311.416,257.600 311.191 C 257.600 310.967,258.095 310.564,258.700 310.298 C 259.305 310.031,260.035 309.495,260.323 309.106 C 260.610 308.718,261.124 308.400,261.465 308.400 C 261.806 308.400,262.430 307.961,262.853 307.424 C 263.275 306.887,264.014 306.322,264.495 306.170 C 264.976 306.017,265.706 305.465,266.117 304.942 C 266.528 304.420,267.037 304.099,267.248 304.230 C 267.459 304.360,267.990 304.013,268.426 303.457 C 268.863 302.902,269.614 302.322,270.095 302.170 C 270.576 302.017,271.296 301.477,271.695 300.970 C 272.094 300.462,272.821 299.921,273.310 299.767 C 273.800 299.613,274.716 298.884,275.347 298.148 C 275.977 297.412,276.650 296.907,276.841 297.025 C 277.032 297.144,277.750 296.602,278.435 295.821 C 279.120 295.041,279.847 294.505,280.050 294.631 C 280.254 294.757,281.155 294.038,282.054 293.034 C 282.953 292.029,283.849 291.306,284.044 291.427 C 284.240 291.548,284.400 291.457,284.400 291.224 C 284.400 290.991,284.576 290.800,284.792 290.800 C 285.007 290.800,285.924 289.997,286.829 289.015 C 287.733 288.034,288.840 287.114,289.287 286.973 C 289.734 286.831,290.628 286.112,291.274 285.376 C 291.921 284.640,292.792 283.930,293.210 283.797 C 293.628 283.664,295.385 282.170,297.113 280.478 C 300.819 276.848,301.374 276.400,302.156 276.400 C 302.481 276.400,302.848 276.080,302.972 275.689 C 303.245 274.827,320.070 258.000,320.658 258.000 C 320.887 258.000,321.501 257.170,322.023 256.156 C 322.544 255.142,324.014 253.387,325.289 252.256 C 326.564 251.125,327.526 249.987,327.427 249.727 C 327.327 249.467,328.046 248.538,329.023 247.664 C 330.000 246.789,330.800 245.856,330.800 245.590 C 330.800 245.324,331.527 244.401,332.415 243.539 C 333.303 242.677,333.931 241.813,333.811 241.618 C 333.691 241.423,334.020 240.928,334.542 240.517 C 335.065 240.106,335.617 239.376,335.770 238.895 C 335.922 238.414,336.502 237.663,337.057 237.226 C 337.613 236.790,337.960 236.259,337.830 236.048 C 337.699 235.837,338.059 235.297,338.630 234.848 C 339.200 234.399,339.560 233.859,339.430 233.648 C 339.299 233.437,339.659 232.897,340.230 232.448 C 340.800 231.999,341.160 231.459,341.030 231.248 C 340.899 231.037,341.259 230.497,341.830 230.048 C 342.400 229.599,342.751 229.044,342.608 228.813 C 342.466 228.583,342.631 228.286,342.975 228.154 C 343.319 228.022,343.600 227.664,343.600 227.357 C 343.600 227.051,343.967 226.433,344.415 225.985 C 344.863 225.537,345.121 224.996,344.989 224.783 C 344.857 224.569,345.031 224.286,345.375 224.154 C 345.719 224.022,346.000 223.664,346.000 223.357 C 346.000 223.051,346.367 222.433,346.815 221.985 C 347.263 221.537,347.521 220.996,347.389 220.783 C 347.257 220.569,347.441 220.282,347.798 220.146 C 348.154 220.009,348.349 219.643,348.230 219.333 C 348.111 219.023,348.291 218.663,348.630 218.533 C 348.969 218.403,349.149 218.043,349.030 217.733 C 348.911 217.423,349.091 217.063,349.430 216.933 C 349.769 216.803,349.949 216.443,349.830 216.133 C 349.711 215.823,349.891 215.463,350.230 215.333 C 350.569 215.203,350.749 214.843,350.630 214.533 C 350.511 214.223,350.691 213.863,351.030 213.733 C 351.381 213.598,351.546 213.236,351.413 212.891 C 351.285 212.557,351.473 211.962,351.830 211.567 C 352.186 211.173,352.359 210.658,352.214 210.422 C 352.068 210.187,352.241 209.882,352.598 209.746 C 352.954 209.609,353.149 209.243,353.030 208.933 C 352.911 208.623,353.094 208.262,353.436 208.131 C 353.865 207.966,353.985 207.594,353.820 206.937 C 353.655 206.281,353.775 205.908,354.202 205.744 C 354.598 205.592,354.737 205.231,354.584 204.751 C 354.429 204.260,354.575 203.908,355.002 203.744 C 355.463 203.567,355.588 203.208,355.422 202.546 C 355.247 201.847,355.352 201.600,355.824 201.600 C 356.327 201.600,356.407 201.343,356.200 200.400 C 355.999 199.483,356.095 199.139,356.607 198.942 C 357.104 198.751,357.217 198.386,357.045 197.527 C 356.878 196.690,356.988 196.303,357.445 196.127 C 357.902 195.952,358.013 195.565,357.845 194.727 C 357.678 193.888,357.788 193.503,358.249 193.326 C 358.738 193.138,358.828 192.736,358.642 191.570 C 358.466 190.474,358.574 189.883,359.034 189.423 C 359.509 188.948,359.601 188.387,359.399 187.195 C 359.181 185.904,359.259 185.552,359.811 185.341 C 360.397 185.116,360.455 184.705,360.226 182.388 C 360.014 180.235,360.085 179.572,360.581 179.077 C 361.502 178.155,361.496 165.039,360.574 164.117 C 360.074 163.617,360.002 162.983,360.219 160.962 C 360.443 158.872,360.372 158.315,359.811 157.753 C 359.244 157.187,359.177 156.623,359.405 154.348 C 359.631 152.102,359.563 151.506,359.022 150.965 C 358.518 150.461,358.426 149.902,358.626 148.568 C 358.827 147.226,358.734 146.677,358.217 146.160 C 357.713 145.656,357.612 145.112,357.808 143.951 C 358.000 142.814,357.902 142.245,357.434 141.777 C 356.974 141.317,356.866 140.726,357.042 139.630 C 357.233 138.433,357.142 138.063,356.607 137.858 C 356.064 137.650,355.982 137.292,356.191 136.052 C 356.397 134.836,356.315 134.453,355.807 134.258 C 355.313 134.069,355.221 133.693,355.415 132.661 C 355.606 131.641,355.515 131.253,355.041 131.071 C 354.589 130.897,354.478 130.508,354.645 129.673 C 354.815 128.826,354.703 128.448,354.229 128.266 C 353.775 128.092,353.652 127.731,353.820 127.063 C 353.987 126.399,353.865 126.034,353.420 125.863 C 352.975 125.692,352.853 125.327,353.020 124.663 C 353.187 123.999,353.065 123.634,352.620 123.463 C 352.175 123.292,352.053 122.927,352.220 122.263 C 352.388 121.591,352.265 121.234,351.802 121.056 C 351.378 120.893,351.229 120.539,351.381 120.058 C 351.519 119.624,351.360 119.099,351.000 118.800 C 350.660 118.518,350.481 117.974,350.603 117.591 C 350.734 117.178,350.577 116.800,350.219 116.663 C 349.871 116.529,349.714 116.168,349.850 115.815 C 349.979 115.477,349.886 115.200,349.643 115.200 C 349.399 115.200,349.200 114.862,349.200 114.449 C 349.200 114.036,348.926 113.471,348.591 113.193 C 348.256 112.915,348.081 112.374,348.203 111.991 C 348.334 111.578,348.177 111.200,347.819 111.063 C 347.486 110.935,347.311 110.577,347.430 110.267 C 347.549 109.957,347.369 109.597,347.030 109.467 C 346.691 109.337,346.511 108.977,346.630 108.667 C 346.749 108.357,346.569 107.997,346.230 107.867 C 345.891 107.737,345.711 107.377,345.830 107.067 C 345.949 106.757,345.769 106.397,345.430 106.267 C 345.074 106.130,344.913 105.771,345.050 105.415 C 345.179 105.077,345.104 104.800,344.882 104.800 C 344.393 104.800,342.800 102.182,342.800 101.377 C 342.800 101.060,342.616 100.800,342.391 100.800 C 342.167 100.800,341.762 100.307,341.491 99.705 C 341.221 99.104,340.685 98.294,340.300 97.905 C 339.915 97.517,339.600 97.001,339.600 96.758 C 339.600 96.514,339.148 95.960,338.596 95.526 C 338.044 95.091,337.693 94.573,337.816 94.373 C 337.940 94.174,337.410 93.457,336.639 92.781 C 335.869 92.104,335.130 91.209,334.997 90.790 C 334.864 90.372,333.066 88.369,331.001 86.339 C 328.937 84.308,327.325 82.521,327.421 82.366 C 327.516 82.212,326.827 81.725,325.889 81.284 C 324.952 80.843,323.706 79.905,323.122 79.200 C 322.537 78.494,321.880 78.027,321.661 78.162 C 321.443 78.297,320.935 78.000,320.532 77.502 C 320.129 77.004,319.305 76.376,318.700 76.107 C 318.095 75.837,317.600 75.433,317.600 75.209 C 317.600 74.984,317.240 74.800,316.800 74.800 C 316.360 74.800,316.000 74.620,316.000 74.400 C 316.000 74.180,315.730 74.000,315.400 74.000 C 315.070 74.000,314.425 73.625,313.967 73.167 C 313.508 72.708,313.028 72.439,312.899 72.568 C 312.770 72.696,312.380 72.545,312.032 72.231 C 311.138 71.423,306.829 69.200,306.159 69.200 C 305.852 69.200,305.600 69.040,305.600 68.845 C 305.600 68.650,304.745 68.364,303.700 68.208 C 302.655 68.052,301.620 67.792,301.400 67.630 C 301.180 67.467,299.110 66.758,296.800 66.054 C 294.490 65.350,292.047 64.600,291.372 64.387 C 290.696 64.174,289.762 64.000,289.295 64.000 C 288.829 64.000,288.336 63.820,288.200 63.600 C 288.064 63.380,287.309 63.200,286.523 63.200 C 285.736 63.200,284.442 63.034,283.646 62.831 C 279.895 61.876,276.214 61.580,266.519 61.457 C 258.014 61.349,255.999 61.425,255.832 61.862 M238.000 82.800 C 238.000 83.333,237.733 83.600,237.200 83.600 C 236.272 83.600,236.207 83.385,236.900 82.598 C 237.606 81.796,238.000 81.869,238.000 82.800 M239.008 139.351 C 239.476 139.819,239.336 139.939,238.080 140.147 C 235.850 140.515,234.000 140.449,234.000 140.000 C 234.000 139.780,234.360 139.600,234.800 139.600 C 235.240 139.600,235.600 139.420,235.600 139.200 C 235.600 138.597,238.377 138.720,239.008 139.351 " stroke="none" fill="#fbfbfb" fill-rule="evenodd"></path><path id="path3" d="M210.282 139.581 C 208.889 140.804,207.710 144.159,208.088 145.820 C 208.191 146.268,208.401 145.749,208.582 144.600 C 209.673 137.701,215.831 136.537,217.803 142.857 C 218.156 143.989,218.356 144.279,218.373 143.684 C 218.496 139.467,213.372 136.868,210.282 139.581 M218.468 146.000 C 218.462 146.770,218.611 147.760,218.800 148.200 C 219.265 149.282,219.265 147.052,218.800 145.600 C 218.509 144.691,218.479 144.727,218.468 146.000 M207.503 147.600 C 207.342 148.150,207.220 149.050,207.231 149.600 L 207.251 150.600 207.644 149.615 C 207.860 149.074,207.982 148.174,207.916 147.615 L 207.795 146.600 207.503 147.600 M219.280 150.400 C 219.280 151.170,219.424 152.250,219.600 152.800 C 219.890 153.705,219.920 153.667,219.920 152.400 C 219.920 151.630,219.776 150.550,219.600 150.000 C 219.310 149.095,219.280 149.133,219.280 150.400 M206.619 152.518 C 206.445 153.574,206.404 154.537,206.526 154.659 C 206.836 154.970,207.311 152.242,207.104 151.340 C 207.010 150.933,206.792 151.463,206.619 152.518 M220.068 155.000 C 220.087 156.911,220.717 158.619,220.732 156.800 C 220.738 156.030,220.589 155.040,220.400 154.600 C 220.108 153.921,220.058 153.981,220.068 155.000 M205.782 156.982 C 205.629 158.002,205.602 158.935,205.722 159.055 C 205.842 159.175,206.065 158.439,206.218 157.418 C 206.371 156.398,206.398 155.465,206.278 155.345 C 206.158 155.225,205.935 155.961,205.782 156.982 M220.880 159.400 C 220.880 160.060,221.024 161.050,221.200 161.600 C 221.511 162.572,221.520 162.567,221.520 161.400 C 221.520 160.740,221.376 159.750,221.200 159.200 C 220.889 158.228,220.880 158.233,220.880 159.400 M204.982 161.382 C 204.829 162.402,204.802 163.335,204.922 163.455 C 205.042 163.575,205.265 162.839,205.418 161.818 C 205.571 160.798,205.598 159.865,205.478 159.745 C 205.358 159.625,205.135 160.361,204.982 161.382 M221.680 163.800 C 221.680 164.460,221.824 165.450,222.000 166.000 C 222.311 166.972,222.320 166.967,222.320 165.800 C 222.320 165.140,222.176 164.150,222.000 163.600 C 221.689 162.628,221.680 162.633,221.680 163.800 M204.182 165.782 C 204.029 166.802,204.002 167.735,204.122 167.855 C 204.242 167.975,204.465 167.239,204.618 166.218 C 204.771 165.198,204.798 164.265,204.678 164.145 C 204.558 164.025,204.335 164.761,204.182 165.782 M222.480 168.200 C 222.480 168.860,222.624 169.850,222.800 170.400 C 223.111 171.372,223.120 171.367,223.120 170.200 C 223.120 169.540,222.976 168.550,222.800 168.000 C 222.489 167.028,222.480 167.033,222.480 168.200 M203.503 169.200 C 203.342 169.750,203.220 170.650,203.231 171.200 L 203.251 172.200 203.644 171.215 C 203.860 170.674,203.982 169.774,203.916 169.215 L 203.795 168.200 203.503 169.200 M212.800 171.224 C 212.800 171.677,212.957 171.950,213.149 171.831 C 213.342 171.712,213.643 172.557,213.818 173.708 C 214.033 175.119,214.191 175.488,214.304 174.841 C 214.503 173.699,213.644 170.400,213.148 170.400 C 212.957 170.400,212.800 170.771,212.800 171.224 M223.268 172.800 C 223.262 173.570,223.411 174.560,223.600 175.000 C 224.065 176.082,224.065 173.852,223.600 172.400 C 223.309 171.491,223.279 171.527,223.268 172.800 M202.619 174.118 C 202.445 175.174,202.404 176.137,202.526 176.259 C 202.836 176.570,203.311 173.842,203.104 172.940 C 203.010 172.533,202.792 173.063,202.619 174.118 M212.182 174.182 C 212.029 175.202,212.002 176.135,212.122 176.255 C 212.242 176.375,212.465 175.639,212.618 174.618 C 212.771 173.598,212.798 172.665,212.678 172.545 C 212.558 172.425,212.335 173.161,212.182 174.182 M214.480 177.000 C 214.480 177.660,214.624 178.650,214.800 179.200 C 215.111 180.172,215.120 180.167,215.120 179.000 C 215.120 178.340,214.976 177.350,214.800 176.800 C 214.489 175.828,214.480 175.833,214.480 177.000 M224.068 177.200 C 224.062 177.970,224.211 178.960,224.400 179.400 C 224.865 180.482,224.865 178.252,224.400 176.800 C 224.109 175.891,224.079 175.927,224.068 177.200 M201.782 178.582 C 201.629 179.602,201.602 180.535,201.722 180.655 C 201.842 180.775,202.065 180.039,202.218 179.018 C 202.371 177.998,202.398 177.065,202.278 176.945 C 202.158 176.825,201.935 177.561,201.782 178.582 M211.405 178.259 C 211.269 179.107,210.987 180.555,210.779 181.477 C 210.283 183.672,210.290 185.531,210.789 184.000 C 211.347 182.284,212.141 177.208,211.890 176.957 C 211.759 176.826,211.541 177.412,211.405 178.259 M215.280 181.400 C 215.280 182.060,215.424 183.050,215.600 183.600 C 215.911 184.572,215.920 184.567,215.920 183.400 C 215.920 182.740,215.776 181.750,215.600 181.200 C 215.289 180.228,215.280 180.233,215.280 181.400 M224.880 181.600 C 224.880 182.370,225.024 183.450,225.200 184.000 C 225.490 184.905,225.520 184.867,225.520 183.600 C 225.520 182.830,225.376 181.750,225.200 181.200 C 224.910 180.295,224.880 180.333,224.880 181.600 M200.982 182.982 C 200.829 184.002,200.802 184.935,200.922 185.055 C 201.042 185.175,201.265 184.439,201.418 183.418 C 201.571 182.398,201.598 181.465,201.478 181.345 C 201.358 181.225,201.135 181.961,200.982 182.982 M216.080 185.800 C 216.080 186.460,216.224 187.450,216.400 188.000 C 216.711 188.972,216.720 188.967,216.720 187.800 C 216.720 187.140,216.576 186.150,216.400 185.600 C 216.089 184.628,216.080 184.633,216.080 185.800 M209.782 186.982 C 209.629 188.002,209.602 188.935,209.722 189.055 C 209.842 189.175,210.065 188.439,210.218 187.418 C 210.371 186.398,210.398 185.465,210.278 185.345 C 210.158 185.225,209.935 185.961,209.782 186.982 M225.680 186.200 C 225.680 186.860,225.824 187.850,226.000 188.400 C 226.311 189.372,226.320 189.367,226.320 188.200 C 226.320 187.540,226.176 186.550,226.000 186.000 C 225.689 185.028,225.680 185.033,225.680 186.200 M200.182 187.382 C 200.029 188.402,200.002 189.335,200.122 189.455 C 200.242 189.575,200.465 188.839,200.618 187.818 C 200.771 186.798,200.798 185.865,200.678 185.745 C 200.558 185.625,200.335 186.361,200.182 187.382 M208.982 191.382 C 208.829 192.402,208.802 193.335,208.922 193.455 C 209.042 193.575,209.265 192.839,209.418 191.818 C 209.571 190.798,209.598 189.865,209.478 189.745 C 209.358 189.625,209.135 190.361,208.982 191.382 M226.480 190.600 C 226.480 191.260,226.624 192.250,226.800 192.800 C 227.111 193.772,227.120 193.767,227.120 192.600 C 227.120 191.940,226.976 190.950,226.800 190.400 C 226.489 189.428,226.480 189.433,226.480 190.600 M199.503 190.800 C 199.342 191.350,199.220 192.250,199.231 192.800 L 199.251 193.800 199.644 192.815 C 199.860 192.274,199.982 191.374,199.916 190.815 L 199.795 189.800 199.503 190.800 M216.400 191.151 C 216.400 191.564,216.670 192.126,217.000 192.400 C 217.661 192.949,217.836 192.280,217.357 191.033 C 217.022 190.160,216.400 190.237,216.400 191.151 M198.462 196.222 C 198.166 197.554,198.006 199.084,198.107 199.622 C 198.256 200.411,198.302 200.344,198.346 199.274 C 198.375 198.544,198.591 197.591,198.824 197.155 C 199.057 196.720,199.192 195.786,199.124 195.082 C 199.019 193.995,198.918 194.169,198.462 196.222 M208.182 195.782 C 208.029 196.802,208.002 197.735,208.122 197.855 C 208.242 197.975,208.465 197.239,208.618 196.218 C 208.771 195.198,208.798 194.265,208.678 194.145 C 208.558 194.025,208.335 194.761,208.182 195.782 M217.459 195.000 C 218.109 197.880,218.329 198.310,218.366 196.776 C 218.385 195.994,218.127 195.004,217.794 194.576 C 217.223 193.845,217.203 193.870,217.459 195.000 M227.268 195.200 C 227.262 195.970,227.411 196.960,227.600 197.400 C 228.065 198.482,228.065 196.252,227.600 194.800 C 227.309 193.891,227.279 193.927,227.268 195.200 M246.773 196.902 C 245.302 198.189,242.764 206.091,243.303 207.708 C 243.390 207.971,243.783 206.750,244.174 204.994 C 245.629 198.471,246.194 197.330,248.408 196.446 C 249.255 196.109,249.283 196.047,248.600 196.027 C 248.160 196.014,247.338 196.408,246.773 196.902 M310.200 196.661 C 313.256 198.264,313.832 201.811,311.386 203.959 L 309.972 205.200 281.800 205.200 C 250.559 205.200,252.743 205.013,252.830 207.674 C 252.855 208.420,252.959 208.329,253.366 207.200 L 253.871 205.800 282.001 205.697 L 310.132 205.595 311.453 204.587 C 314.151 202.528,313.872 197.782,310.975 196.462 C 309.459 195.771,308.817 195.936,310.200 196.661 M207.497 199.200 C 207.340 199.750,207.225 200.740,207.242 201.400 L 207.272 202.600 207.658 201.258 C 207.871 200.520,207.986 199.530,207.914 199.058 C 207.792 198.254,207.766 198.263,207.497 199.200 M218.468 199.400 C 218.487 201.311,219.117 203.019,219.132 201.200 C 219.138 200.430,218.989 199.440,218.800 199.000 C 218.508 198.321,218.458 198.381,218.468 199.400 M228.068 199.600 C 228.062 200.370,228.211 201.360,228.400 201.800 C 228.865 202.882,228.865 200.652,228.400 199.200 C 228.109 198.291,228.079 198.327,228.068 199.600 M206.697 203.600 C 206.540 204.150,206.425 205.140,206.442 205.800 L 206.472 207.000 206.858 205.658 C 207.071 204.920,207.186 203.930,207.114 203.458 C 206.992 202.654,206.966 202.663,206.697 203.600 M219.280 203.800 C 219.280 204.460,219.424 205.450,219.600 206.000 C 219.911 206.972,219.920 206.967,219.920 205.800 C 219.920 205.140,219.776 204.150,219.600 203.600 C 219.289 202.628,219.280 202.633,219.280 203.800 M228.880 204.000 C 228.880 204.770,229.024 205.850,229.200 206.400 C 229.490 207.305,229.520 207.267,229.520 206.000 C 229.520 205.230,229.376 204.150,229.200 203.600 C 228.910 202.695,228.880 202.733,228.880 204.000 M205.903 208.000 C 205.742 208.550,205.620 209.450,205.631 210.000 L 205.651 211.000 206.044 210.015 C 206.260 209.474,206.382 208.574,206.316 208.015 L 206.195 207.000 205.903 208.000 M220.080 208.200 C 220.080 208.860,220.224 209.850,220.400 210.400 C 220.711 211.372,220.720 211.367,220.720 210.200 C 220.720 209.540,220.576 208.550,220.400 208.000 C 220.089 207.028,220.080 207.033,220.080 208.200 M229.668 208.600 C 229.687 210.511,230.317 212.219,230.332 210.400 C 230.338 209.630,230.189 208.640,230.000 208.200 C 229.708 207.521,229.658 207.581,229.668 208.600 M242.578 209.778 C 242.427 210.581,242.404 211.337,242.526 211.460 C 242.648 211.582,242.872 211.025,243.022 210.222 C 243.173 209.419,243.196 208.663,243.074 208.540 C 242.952 208.418,242.728 208.975,242.578 209.778 M251.828 211.806 C 251.438 213.563,250.957 215.522,250.759 216.160 C 250.274 217.727,250.308 219.468,250.795 218.000 C 251.496 215.889,252.850 209.550,252.697 209.092 C 252.610 208.829,252.218 210.050,251.828 211.806 M204.982 212.982 C 204.829 214.002,204.802 214.935,204.922 215.055 C 205.042 215.175,205.265 214.439,205.418 213.418 C 205.571 212.398,205.598 211.465,205.478 211.345 C 205.358 211.225,205.135 211.961,204.982 212.982 M220.868 212.800 C 220.862 213.570,221.011 214.560,221.200 215.000 C 221.665 216.082,221.665 213.852,221.200 212.400 C 220.909 211.491,220.879 211.527,220.868 212.800 M230.480 213.000 C 230.480 213.660,230.624 214.650,230.800 215.200 C 231.111 216.172,231.120 216.167,231.120 215.000 C 231.120 214.340,230.976 213.350,230.800 212.800 C 230.489 211.828,230.480 211.833,230.480 213.000 M241.408 214.912 C 241.006 216.617,240.787 218.120,240.919 218.253 C 241.052 218.386,241.270 217.978,241.403 217.347 C 241.536 216.716,241.835 215.449,242.066 214.530 C 242.298 213.612,242.408 212.625,242.312 212.337 C 242.216 212.049,241.809 213.207,241.408 214.912 M204.182 217.382 C 204.029 218.402,204.002 219.335,204.122 219.455 C 204.242 219.575,204.465 218.839,204.618 217.818 C 204.771 216.798,204.798 215.865,204.678 215.745 C 204.558 215.625,204.335 216.361,204.182 217.382 M221.680 217.200 C 221.680 217.970,221.824 219.050,222.000 219.600 C 222.290 220.505,222.320 220.467,222.320 219.200 C 222.320 218.430,222.176 217.350,222.000 216.800 C 221.710 215.895,221.680 215.933,221.680 217.200 M231.280 217.400 C 231.280 218.060,231.424 219.050,231.600 219.600 C 231.911 220.572,231.920 220.567,231.920 219.400 C 231.920 218.740,231.776 217.750,231.600 217.200 C 231.289 216.228,231.280 216.233,231.280 217.400 M240.178 220.178 C 240.027 220.981,240.004 221.737,240.126 221.860 C 240.248 221.982,240.472 221.425,240.622 220.622 C 240.773 219.819,240.796 219.063,240.674 218.940 C 240.552 218.818,240.328 219.375,240.178 220.178 M249.428 222.206 C 249.038 223.963,248.557 225.922,248.359 226.560 C 247.874 228.127,247.908 229.868,248.395 228.400 C 249.096 226.289,250.450 219.950,250.297 219.492 C 250.210 219.229,249.818 220.450,249.428 222.206 M203.382 221.782 C 203.229 222.802,203.202 223.735,203.322 223.855 C 203.442 223.975,203.665 223.239,203.818 222.218 C 203.971 221.198,203.998 220.265,203.878 220.145 C 203.758 220.025,203.535 220.761,203.382 221.782 M222.468 221.800 C 222.487 223.711,223.117 225.419,223.132 223.600 C 223.138 222.830,222.989 221.840,222.800 221.400 C 222.508 220.721,222.458 220.781,222.468 221.800 M232.068 222.000 C 232.062 222.770,232.211 223.760,232.400 224.200 C 232.865 225.282,232.865 223.052,232.400 221.600 C 232.109 220.691,232.079 220.727,232.068 222.000 M239.378 223.778 C 239.227 224.581,239.204 225.337,239.326 225.460 C 239.448 225.582,239.672 225.025,239.822 224.222 C 239.973 223.419,239.996 222.663,239.874 222.540 C 239.752 222.418,239.528 222.975,239.378 223.778 M202.697 225.200 C 202.540 225.750,202.425 226.740,202.442 227.400 L 202.472 228.600 202.858 227.258 C 203.071 226.520,203.186 225.530,203.114 225.058 C 202.992 224.254,202.966 224.263,202.697 225.200 M223.280 226.200 C 223.280 226.860,223.424 227.850,223.600 228.400 C 223.911 229.372,223.920 229.367,223.920 228.200 C 223.920 227.540,223.776 226.550,223.600 226.000 C 223.289 225.028,223.280 225.033,223.280 226.200 M232.880 226.400 C 232.880 227.170,233.024 228.250,233.200 228.800 C 233.490 229.705,233.520 229.667,233.520 228.400 C 233.520 227.630,233.376 226.550,233.200 226.000 C 232.910 225.095,232.880 225.133,232.880 226.400 M238.189 228.989 C 237.798 230.651,237.573 232.106,237.688 232.222 C 237.804 232.338,238.219 231.072,238.611 229.411 C 239.002 227.749,239.227 226.294,239.112 226.178 C 238.996 226.062,238.581 227.328,238.189 228.989 M201.805 230.259 C 201.669 231.107,201.387 232.555,201.179 233.477 C 200.683 235.672,200.690 237.531,201.189 236.000 C 201.747 234.284,202.541 229.208,202.290 228.957 C 202.159 228.826,201.941 229.412,201.805 230.259 M224.080 230.600 C 224.080 231.260,224.224 232.250,224.400 232.800 C 224.711 233.772,224.720 233.767,224.720 232.600 C 224.720 231.940,224.576 230.950,224.400 230.400 C 224.089 229.428,224.080 229.433,224.080 230.600 M247.028 232.606 C 246.638 234.363,246.157 236.322,245.959 236.960 C 245.474 238.527,245.508 240.268,245.995 238.800 C 246.696 236.689,248.050 230.350,247.897 229.892 C 247.810 229.629,247.418 230.850,247.028 232.606 M233.668 231.000 C 233.687 232.911,234.317 234.619,234.332 232.800 C 234.338 232.030,234.189 231.040,234.000 230.600 C 233.708 229.921,233.658 229.981,233.668 231.000 M236.978 234.178 C 236.827 234.981,236.804 235.737,236.926 235.860 C 237.048 235.982,237.272 235.425,237.422 234.622 C 237.573 233.819,237.596 233.063,237.474 232.940 C 237.352 232.818,237.128 233.375,236.978 234.178 M224.880 235.000 C 224.880 235.660,225.024 236.650,225.200 237.200 C 225.511 238.172,225.520 238.167,225.520 237.000 C 225.520 236.340,225.376 235.350,225.200 234.800 C 224.889 233.828,224.880 233.833,224.880 235.000 M234.480 235.400 C 234.480 236.060,234.624 237.050,234.800 237.600 C 235.111 238.572,235.120 238.567,235.120 237.400 C 235.120 236.740,234.976 235.750,234.800 235.200 C 234.489 234.228,234.480 234.233,234.480 235.400 M236.207 237.696 C 236.045 238.520,235.752 239.094,235.556 238.973 C 235.360 238.852,235.200 239.123,235.200 239.576 C 235.200 240.029,235.351 240.400,235.536 240.400 C 235.996 240.400,236.945 237.423,236.700 236.746 C 236.591 236.446,236.370 236.873,236.207 237.696 M200.164 238.201 C 200.026 238.752,199.379 239.652,198.726 240.201 C 198.073 240.751,197.731 241.200,197.966 241.200 C 198.663 241.200,200.800 238.743,200.800 237.941 C 200.800 236.885,200.459 237.025,200.164 238.201 M225.680 239.600 C 225.680 240.370,225.824 241.450,226.000 242.000 C 226.290 242.905,226.320 242.867,226.320 241.600 C 226.320 240.830,226.176 239.750,226.000 239.200 C 225.710 238.295,225.680 238.333,225.680 239.600 M244.628 243.006 C 244.238 244.763,243.757 246.722,243.559 247.360 C 243.074 248.927,243.108 250.668,243.595 249.200 C 244.296 247.089,245.650 240.750,245.497 240.292 C 245.410 240.029,245.018 241.250,244.628 243.006 M226.468 244.200 C 226.487 246.111,227.117 247.819,227.132 246.000 C 227.138 245.230,226.989 244.240,226.800 243.800 C 226.508 243.121,226.458 243.181,226.468 244.200 M227.268 248.600 C 227.287 250.511,227.917 252.219,227.932 250.400 C 227.938 249.630,227.789 248.640,227.600 248.200 C 227.308 247.521,227.258 247.581,227.268 248.600 M242.578 251.778 C 242.427 252.581,242.404 253.337,242.526 253.460 C 242.648 253.582,242.872 253.025,243.022 252.222 C 243.173 251.419,243.196 250.663,243.074 250.540 C 242.952 250.418,242.728 250.975,242.578 251.778 M228.080 253.000 C 228.080 253.660,228.224 254.650,228.400 255.200 C 228.711 256.172,228.720 256.167,228.720 255.000 C 228.720 254.340,228.576 253.350,228.400 252.800 C 228.089 251.828,228.080 251.833,228.080 253.000 M241.389 256.989 C 240.998 258.651,240.773 260.106,240.888 260.222 C 241.004 260.338,241.419 259.072,241.811 257.411 C 242.202 255.749,242.427 254.294,242.312 254.178 C 242.196 254.062,241.781 255.328,241.389 256.989 M228.880 257.400 C 228.880 258.060,229.024 259.050,229.200 259.600 C 229.511 260.572,229.520 260.567,229.520 259.400 C 229.520 258.740,229.376 257.750,229.200 257.200 C 228.889 256.228,228.880 256.233,228.880 257.400 M229.668 262.000 C 229.662 262.770,229.811 263.760,230.000 264.200 C 230.465 265.282,230.465 263.052,230.000 261.600 C 229.709 260.691,229.679 260.727,229.668 262.000 M240.178 262.178 C 240.027 262.981,240.004 263.737,240.126 263.860 C 240.248 263.982,240.472 263.425,240.622 262.622 C 240.773 261.819,240.796 261.063,240.674 260.940 C 240.552 260.818,240.328 261.375,240.178 262.178 M239.401 265.508 C 238.472 269.504,232.669 270.031,231.021 266.269 C 230.566 265.230,230.459 265.156,230.433 265.858 C 230.386 267.092,232.424 269.093,234.032 269.393 C 236.709 269.891,240.422 267.042,239.882 264.904 C 239.761 264.422,239.609 264.612,239.401 265.508 " stroke="none" fill="#959595" fill-rule="evenodd"></path><path id="path4" d="M258.627 60.757 C 258.216 61.422,259.559 61.530,268.400 61.545 C 276.311 61.558,279.805 61.853,283.646 62.831 C 284.442 63.034,285.736 63.200,286.523 63.200 C 287.309 63.200,288.064 63.380,288.200 63.600 C 288.336 63.820,288.829 64.000,289.295 64.000 C 289.762 64.000,290.696 64.174,291.372 64.387 C 292.047 64.600,294.490 65.350,296.800 66.054 C 299.110 66.758,301.180 67.464,301.400 67.622 C 302.155 68.165,305.200 68.496,305.200 68.035 C 305.200 67.796,304.851 67.600,304.424 67.600 C 303.997 67.600,303.536 67.420,303.400 67.200 C 303.264 66.980,302.713 66.800,302.176 66.800 C 301.639 66.800,301.200 66.620,301.200 66.400 C 301.200 66.180,300.671 66.000,300.024 66.000 C 299.377 66.000,298.736 65.820,298.600 65.600 C 298.464 65.380,297.924 65.200,297.400 65.200 C 296.876 65.200,296.336 65.020,296.200 64.800 C 296.064 64.580,295.434 64.400,294.800 64.400 C 294.166 64.400,293.536 64.220,293.400 64.000 C 293.264 63.780,292.623 63.600,291.976 63.600 C 291.329 63.600,290.800 63.420,290.800 63.200 C 290.800 62.980,290.001 62.800,289.024 62.800 C 288.047 62.800,287.136 62.620,287.000 62.400 C 286.864 62.180,285.989 62.000,285.056 62.000 C 284.123 62.000,283.189 61.835,282.980 61.632 C 282.130 60.810,259.105 59.982,258.627 60.757 M254.200 61.091 C 253.540 61.185,252.829 61.428,252.620 61.631 C 252.411 61.834,251.657 62.000,250.944 62.000 C 250.231 62.000,249.536 62.180,249.400 62.400 C 249.264 62.620,248.533 62.800,247.776 62.800 C 247.019 62.800,246.400 62.980,246.400 63.200 C 246.400 63.420,245.871 63.600,245.224 63.600 C 244.577 63.600,243.936 63.780,243.800 64.000 C 243.664 64.220,243.124 64.400,242.600 64.400 C 242.076 64.400,241.536 64.580,241.400 64.800 C 241.264 65.020,240.801 65.200,240.371 65.200 C 239.941 65.200,239.277 65.360,238.895 65.556 C 238.513 65.752,237.345 66.292,236.300 66.756 C 232.244 68.557,230.541 69.407,229.000 70.397 C 228.120 70.962,226.905 71.674,226.300 71.980 C 225.695 72.285,225.200 72.685,225.200 72.868 C 225.200 73.050,224.975 73.203,224.700 73.207 C 224.425 73.211,223.660 73.651,223.000 74.184 C 222.340 74.717,220.863 75.847,219.718 76.696 C 215.190 80.052,207.210 87.586,202.148 93.284 C 200.478 95.164,199.915 95.552,198.960 95.484 L 197.800 95.400 197.734 147.200 C 197.692 179.303,197.807 198.544,198.036 197.800 C 198.253 197.094,198.401 175.958,198.397 146.491 L 198.388 96.382 199.373 96.629 C 200.174 96.830,200.601 96.589,201.664 95.338 C 209.682 85.900,220.822 76.371,230.201 70.926 C 236.699 67.154,246.845 63.549,253.995 62.471 C 255.252 62.281,255.831 61.990,255.925 61.500 C 255.998 61.115,255.910 60.827,255.729 60.860 C 255.548 60.893,254.860 60.997,254.200 61.091 M305.600 68.800 C 305.600 69.020,305.870 69.200,306.200 69.200 C 306.530 69.200,306.800 69.020,306.800 68.800 C 306.800 68.580,306.530 68.400,306.200 68.400 C 305.870 68.400,305.600 68.580,305.600 68.800 M307.200 69.371 C 307.200 69.464,308.182 70.022,309.383 70.609 C 310.584 71.197,311.778 71.932,312.036 72.244 C 312.392 72.673,312.639 72.700,313.053 72.356 C 313.479 72.002,313.600 72.053,313.600 72.586 C 313.600 72.978,314.111 73.463,314.800 73.722 C 315.460 73.972,316.000 74.316,316.000 74.488 C 316.000 74.659,316.270 74.800,316.600 74.800 C 317.549 74.800,317.300 74.187,316.100 73.568 C 315.495 73.255,314.651 72.685,314.225 72.300 C 313.798 71.915,313.241 71.600,312.987 71.600 C 312.732 71.600,312.234 71.280,311.880 70.889 C 311.526 70.498,310.741 70.137,310.136 70.086 C 309.531 70.036,308.856 69.816,308.638 69.598 C 308.245 69.205,307.200 69.040,307.200 69.371 M317.600 75.186 C 317.600 75.655,319.183 76.551,319.482 76.251 C 319.760 75.974,318.585 74.800,318.029 74.800 C 317.793 74.800,317.600 74.974,317.600 75.186 M320.000 76.738 C 320.000 77.562,321.572 78.539,321.827 77.874 C 321.961 77.524,321.954 77.050,321.812 76.819 C 321.503 76.320,320.000 76.253,320.000 76.738 M323.292 79.276 C 323.517 79.950,325.537 81.396,325.836 81.097 C 326.147 80.787,324.200 78.800,323.585 78.800 C 323.337 78.800,323.205 79.014,323.292 79.276 M330.225 85.600 C 331.942 87.360,333.540 88.786,333.774 88.768 C 334.008 88.751,333.975 88.646,333.700 88.535 C 333.425 88.424,333.200 88.094,333.200 87.802 C 333.200 87.214,328.114 82.400,327.493 82.400 C 327.278 82.400,328.507 83.840,330.225 85.600 M334.800 90.386 C 334.800 90.903,337.187 93.600,337.645 93.600 C 338.107 93.600,337.262 92.118,336.118 90.922 C 335.167 89.927,334.800 89.778,334.800 90.386 M337.866 94.268 C 337.570 94.564,338.727 96.000,339.262 96.000 C 339.790 96.000,339.659 95.202,339.029 94.571 C 338.383 93.926,338.244 93.890,337.866 94.268 M339.600 96.800 C 339.600 97.020,339.915 97.517,340.300 97.905 C 340.685 98.294,341.221 99.104,341.491 99.705 C 342.021 100.884,342.800 101.179,342.800 100.200 C 342.800 99.870,342.650 99.600,342.468 99.600 C 342.285 99.600,341.880 99.105,341.568 98.500 C 340.665 96.750,339.600 95.830,339.600 96.800 M342.800 101.577 C 342.800 102.194,344.449 104.800,344.840 104.800 C 345.342 104.800,345.312 104.686,344.326 102.838 C 343.507 101.303,342.800 100.719,342.800 101.577 M345.078 105.456 C 344.758 105.775,345.119 106.400,345.624 106.400 C 345.831 106.400,346.000 106.130,346.000 105.800 C 346.000 105.181,345.528 105.005,345.078 105.456 M345.798 107.203 C 345.661 107.425,345.951 107.756,346.443 107.938 C 347.042 108.159,347.180 108.365,346.862 108.562 C 346.352 108.877,346.604 109.600,347.224 109.600 C 347.771 109.600,347.661 108.314,347.043 107.500 C 346.435 106.699,346.151 106.632,345.798 107.203 M347.478 110.256 C 347.158 110.575,347.519 111.200,348.024 111.200 C 348.231 111.200,348.400 110.930,348.400 110.600 C 348.400 109.981,347.928 109.805,347.478 110.256 M348.184 112.025 C 348.040 112.259,348.209 112.768,348.561 113.157 C 348.912 113.545,349.200 114.164,349.200 114.531 C 349.200 114.899,349.380 115.200,349.600 115.200 C 349.820 115.200,350.000 114.941,350.000 114.624 C 350.000 114.307,349.820 113.936,349.600 113.800 C 349.380 113.664,349.200 113.113,349.200 112.576 C 349.200 111.572,348.649 111.273,348.184 112.025 M349.878 115.856 C 349.558 116.175,349.919 116.800,350.424 116.800 C 350.631 116.800,350.800 116.530,350.800 116.200 C 350.800 115.581,350.328 115.405,349.878 115.856 M350.576 117.638 C 350.427 117.879,350.597 118.368,350.953 118.724 C 351.549 119.321,351.600 119.286,351.600 118.286 C 351.600 117.181,351.067 116.844,350.576 117.638 M351.400 120.000 C 351.108 120.472,351.487 121.200,352.024 121.200 C 352.231 121.200,352.400 120.840,352.400 120.400 C 352.400 119.556,351.818 119.324,351.400 120.000 M352.200 122.400 C 351.908 122.872,352.287 123.600,352.824 123.600 C 353.031 123.600,353.200 123.240,353.200 122.800 C 353.200 121.956,352.618 121.724,352.200 122.400 M353.000 124.800 C 352.708 125.272,353.087 126.000,353.624 126.000 C 353.831 126.000,354.000 125.640,354.000 125.200 C 354.000 124.356,353.418 124.124,353.000 124.800 M353.800 127.200 C 353.508 127.672,353.887 128.400,354.424 128.400 C 354.631 128.400,354.800 128.040,354.800 127.600 C 354.800 126.756,354.218 126.524,353.800 127.200 M354.641 129.836 C 354.369 130.545,354.649 131.200,355.224 131.200 C 355.431 131.200,355.600 130.750,355.600 130.200 C 355.600 129.081,355.016 128.859,354.641 129.836 M355.352 132.981 C 355.229 133.300,355.246 133.750,355.388 133.981 C 355.854 134.735,356.400 134.421,356.400 133.400 C 356.400 132.316,355.713 132.041,355.352 132.981 M356.154 136.175 C 355.860 136.942,356.227 138.000,356.787 138.000 C 357.319 138.000,357.327 136.126,356.797 135.798 C 356.576 135.661,356.286 135.831,356.154 136.175 M357.020 139.938 C 356.748 140.794,357.112 142.000,357.643 142.000 C 358.117 142.000,358.104 139.712,357.629 139.418 C 357.425 139.292,357.151 139.526,357.020 139.938 M357.786 144.023 C 357.437 144.587,357.912 146.400,358.408 146.400 C 358.623 146.400,358.800 145.770,358.800 145.000 C 358.800 143.637,358.314 143.169,357.786 144.023 M358.602 148.794 C 358.304 149.732,358.685 151.200,359.227 151.200 C 359.712 151.200,359.714 148.518,359.229 148.218 C 359.025 148.092,358.743 148.351,358.602 148.794 M359.453 154.206 C 359.086 155.163,359.154 156.907,359.584 157.588 C 360.158 158.496,360.576 157.738,360.503 155.921 C 360.430 154.099,359.855 153.159,359.453 154.206 M360.168 161.384 C 359.866 162.587,360.251 164.400,360.808 164.400 C 361.317 164.400,361.321 160.922,360.812 160.607 C 360.598 160.475,360.309 160.825,360.168 161.384 M361.212 171.820 C 361.223 172.854,361.277 172.909,361.654 172.261 C 361.961 171.732,361.958 171.398,361.641 171.081 C 361.320 170.760,361.203 170.959,361.212 171.820 M213.092 171.842 C 212.931 172.002,212.805 172.508,212.812 172.967 C 212.823 173.736,212.856 173.745,213.240 173.085 C 213.688 172.316,213.573 171.360,213.092 171.842 M360.164 179.800 C 359.853 181.042,360.287 182.917,360.812 182.593 C 361.321 182.278,361.317 178.800,360.808 178.800 C 360.592 178.800,360.302 179.250,360.164 179.800 M359.394 185.610 C 359.032 186.196,359.592 188.452,360.033 188.180 C 360.517 187.880,360.509 185.200,360.024 185.200 C 359.817 185.200,359.533 185.384,359.394 185.610 M358.618 189.944 C 358.330 190.851,358.749 192.079,359.242 191.774 C 359.718 191.480,359.704 189.200,359.227 189.200 C 359.022 189.200,358.748 189.535,358.618 189.944 M357.822 193.564 C 357.503 194.081,358.012 195.240,358.442 194.974 C 358.918 194.680,358.903 193.200,358.424 193.200 C 358.217 193.200,357.946 193.364,357.822 193.564 M263.530 195.900 C 272.181 195.960,286.221 195.960,294.730 195.900 C 303.238 195.840,296.160 195.790,279.000 195.790 C 261.840 195.790,254.878 195.840,263.530 195.900 M357.022 196.364 C 356.733 196.832,357.176 198.000,357.643 198.000 C 357.839 198.000,358.000 197.550,358.000 197.000 C 358.000 196.012,357.458 195.659,357.022 196.364 M356.152 199.381 C 355.876 200.099,356.323 200.895,356.828 200.583 C 357.335 200.270,357.301 198.800,356.787 198.800 C 356.561 198.800,356.275 199.061,356.152 199.381 M355.292 202.075 C 355.539 202.817,356.400 202.940,356.400 202.233 C 356.400 201.885,356.115 201.600,355.767 201.600 C 355.418 201.600,355.205 201.814,355.292 202.075 M354.600 204.000 C 354.308 204.472,354.687 205.200,355.224 205.200 C 355.431 205.200,355.600 204.840,355.600 204.400 C 355.600 203.556,355.018 203.324,354.600 204.000 M253.862 205.900 C 253.693 206.172,274.240 206.169,300.200 205.892 C 305.700 205.834,297.566 205.744,282.124 205.693 C 266.682 205.642,253.964 205.735,253.862 205.900 M353.822 205.964 C 353.503 206.481,354.012 207.640,354.442 207.374 C 354.918 207.080,354.903 205.600,354.424 205.600 C 354.217 205.600,353.946 205.764,353.822 205.964 M353.078 208.256 C 352.758 208.575,353.119 209.200,353.624 209.200 C 353.831 209.200,354.000 208.930,354.000 208.600 C 354.000 207.981,353.528 207.805,353.078 208.256 M352.278 209.856 C 351.958 210.175,352.319 210.800,352.824 210.800 C 353.031 210.800,353.200 210.530,353.200 210.200 C 353.200 209.581,352.728 209.405,352.278 209.856 M351.637 211.751 C 351.215 212.263,351.188 212.548,351.530 212.890 C 352.136 213.496,352.496 213.082,352.332 211.968 C 352.210 211.135,352.158 211.119,351.637 211.751 M350.678 213.856 C 350.358 214.175,350.719 214.800,351.224 214.800 C 351.431 214.800,351.600 214.530,351.600 214.200 C 351.600 213.581,351.128 213.405,350.678 213.856 M349.878 215.456 C 349.558 215.775,349.919 216.400,350.424 216.400 C 350.631 216.400,350.800 216.130,350.800 215.800 C 350.800 215.181,350.328 215.005,349.878 215.456 M349.078 217.056 C 348.758 217.375,349.119 218.000,349.624 218.000 C 349.831 218.000,350.000 217.730,350.000 217.400 C 350.000 216.781,349.528 216.605,349.078 217.056 M348.278 218.656 C 347.958 218.975,348.319 219.600,348.824 219.600 C 349.031 219.600,349.200 219.330,349.200 219.000 C 349.200 218.381,348.728 218.205,348.278 218.656 M347.478 220.256 C 347.158 220.575,347.519 221.200,348.024 221.200 C 348.231 221.200,348.400 220.930,348.400 220.600 C 348.400 219.981,347.928 219.805,347.478 220.256 M346.382 222.434 C 345.789 223.542,346.251 223.949,346.991 222.971 C 347.676 222.066,347.752 221.600,347.214 221.600 C 347.002 221.600,346.627 221.975,346.382 222.434 M345.070 224.263 C 344.925 224.408,345.007 224.768,345.252 225.063 C 345.594 225.475,345.545 225.600,345.040 225.600 C 344.679 225.600,344.165 226.095,343.900 226.700 C 343.634 227.305,343.184 227.946,342.900 228.125 C 342.616 228.303,342.488 228.618,342.615 228.825 C 342.951 229.368,343.600 229.286,343.601 228.700 C 343.601 228.425,344.141 227.570,344.800 226.800 C 346.202 225.162,346.444 222.890,345.070 224.263 M341.436 230.360 C 340.955 230.892,340.884 231.205,341.201 231.400 C 341.450 231.554,341.906 231.347,342.214 230.940 C 343.290 229.520,342.637 229.033,341.436 230.360 M339.836 232.760 C 339.355 233.292,339.284 233.605,339.601 233.800 C 339.850 233.954,340.306 233.747,340.614 233.340 C 341.690 231.920,341.037 231.433,339.836 232.760 M338.236 235.160 C 337.755 235.692,337.684 236.005,338.001 236.200 C 338.250 236.354,338.706 236.147,339.014 235.740 C 340.090 234.320,339.437 233.833,338.236 235.160 M235.200 237.710 C 235.200 238.283,235.387 238.868,235.616 239.010 C 235.889 239.179,235.938 238.877,235.760 238.134 C 235.392 236.601,235.200 236.456,235.200 237.710 M336.429 237.854 C 335.602 238.905,335.373 239.600,335.853 239.600 C 336.186 239.600,337.999 237.488,338.000 237.100 C 338.001 236.470,337.225 236.842,336.429 237.854 M334.236 240.760 C 333.782 241.262,333.694 241.611,333.977 241.786 C 334.447 242.077,335.600 241.113,335.600 240.429 C 335.600 239.771,334.999 239.918,334.236 240.760 M198.080 241.280 C 197.571 241.789,197.338 344.852,197.843 346.167 C 197.976 346.515,198.336 346.800,198.643 346.800 C 199.297 346.800,199.367 346.327,198.797 345.757 C 198.529 345.489,198.429 327.789,198.497 293.077 C 198.554 264.325,198.591 240.800,198.580 240.800 C 198.569 240.800,198.344 241.016,198.080 241.280 M331.629 244.254 C 330.802 245.305,330.573 246.000,331.053 246.000 C 331.386 246.000,333.199 243.888,333.200 243.500 C 333.201 242.870,332.425 243.242,331.629 244.254 M328.242 248.356 C 327.503 249.127,327.286 249.606,327.589 249.793 C 327.844 249.951,328.471 249.576,329.021 248.937 C 330.725 246.956,330.059 246.460,328.242 248.356 M324.098 253.409 C 322.204 255.403,321.583 256.400,322.235 256.400 C 322.600 256.400,326.800 251.935,326.800 251.546 C 326.800 250.811,326.120 251.280,324.098 253.409 M311.496 266.703 C 306.933 271.270,303.200 275.153,303.200 275.332 C 303.200 275.511,303.486 275.372,303.835 275.023 C 304.184 274.673,305.127 273.896,305.931 273.294 C 309.087 270.933,321.038 258.400,320.134 258.400 C 319.946 258.400,316.059 262.137,311.496 266.703 M301.000 276.783 C 296.946 280.265,294.623 282.805,295.500 282.797 C 295.863 282.794,302.000 276.980,302.000 276.640 C 302.000 276.301,301.473 276.377,301.000 276.783 M291.814 284.841 C 290.482 286.011,290.024 286.812,290.700 286.791 C 291.076 286.779,294.000 284.164,294.000 283.839 C 294.000 283.284,293.136 283.680,291.814 284.841 M287.391 288.451 C 285.308 290.371,285.010 291.271,286.900 289.936 C 288.340 288.918,290.000 287.356,290.000 287.018 C 290.000 286.417,289.003 286.965,287.391 288.451 M282.677 292.319 C 281.530 293.516,281.341 294.000,282.018 294.000 C 282.760 294.000,284.524 291.964,284.126 291.566 C 283.897 291.337,283.341 291.627,282.677 292.319 M278.677 295.519 C 277.370 296.883,277.289 297.384,278.485 296.703 C 279.962 295.863,280.542 295.182,280.132 294.772 C 279.896 294.536,279.352 294.815,278.677 295.519 M275.473 297.989 C 273.776 299.893,274.217 300.272,276.172 298.591 C 276.951 297.921,277.210 297.450,276.944 297.184 C 276.679 296.919,276.186 297.188,275.473 297.989 M272.254 300.429 C 270.975 301.435,270.854 302.204,272.085 301.503 C 273.132 300.908,274.000 300.148,274.000 299.829 C 274.000 299.372,273.285 299.618,272.254 300.429 M269.054 302.829 C 268.042 303.625,267.670 304.401,268.300 304.400 C 268.688 304.399,270.800 302.586,270.800 302.253 C 270.800 301.773,270.105 302.002,269.054 302.829 M266.271 304.722 C 265.099 306.016,265.566 306.454,266.979 305.386 C 267.508 304.986,267.626 304.666,267.349 304.389 C 267.072 304.112,266.726 304.218,266.271 304.722 M263.454 306.829 C 262.442 307.625,262.070 308.401,262.700 308.400 C 263.088 308.399,265.200 306.586,265.200 306.253 C 265.200 305.773,264.505 306.002,263.454 306.829 M260.392 309.010 C 260.114 309.345,259.984 309.717,260.104 309.837 C 260.370 310.103,262.000 309.129,262.000 308.704 C 262.000 308.171,260.917 308.377,260.392 309.010 M258.300 310.432 C 257.526 310.883,257.359 311.600,258.029 311.600 C 258.264 311.600,258.714 311.343,259.029 311.029 C 260.042 310.015,259.615 309.666,258.300 310.432 M254.936 312.743 C 253.176 313.936,252.000 314.990,252.000 315.375 C 252.000 315.680,253.547 314.787,254.555 313.900 C 254.993 313.515,255.510 313.200,255.704 313.200 C 256.096 313.200,257.200 312.188,257.200 311.829 C 257.200 311.379,256.575 311.631,254.936 312.743 M250.253 315.941 C 249.329 316.962,249.442 317.198,250.597 316.662 C 251.636 316.180,251.841 315.796,251.253 315.433 C 251.063 315.315,250.613 315.544,250.253 315.941 M247.871 317.522 C 246.699 318.816,247.166 319.254,248.579 318.186 C 249.108 317.786,249.226 317.466,248.949 317.189 C 248.672 316.912,248.326 317.018,247.871 317.522 M245.471 319.122 C 244.299 320.416,244.766 320.854,246.179 319.786 C 246.708 319.386,246.826 319.066,246.549 318.789 C 246.272 318.512,245.926 318.618,245.471 319.122 M243.071 320.722 C 241.899 322.016,242.366 322.454,243.779 321.386 C 244.308 320.986,244.426 320.666,244.149 320.389 C 243.872 320.112,243.526 320.218,243.071 320.722 M240.653 322.341 C 239.729 323.362,239.842 323.598,240.997 323.062 C 242.036 322.580,242.241 322.196,241.653 321.833 C 241.463 321.715,241.013 321.944,240.653 322.341 M238.656 323.478 C 238.205 323.928,238.381 324.400,239.000 324.400 C 239.330 324.400,239.600 324.231,239.600 324.024 C 239.600 323.519,238.975 323.158,238.656 323.478 M236.700 324.832 C 235.926 325.283,235.759 326.000,236.429 326.000 C 236.664 326.000,237.114 325.743,237.429 325.429 C 238.442 324.415,238.015 324.066,236.700 324.832 M233.992 326.610 C 233.714 326.945,233.584 327.317,233.704 327.437 C 233.970 327.703,235.600 326.729,235.600 326.304 C 235.600 325.771,234.517 325.977,233.992 326.610 M232.256 327.478 C 231.805 327.928,231.981 328.400,232.600 328.400 C 232.930 328.400,233.200 328.231,233.200 328.024 C 233.200 327.519,232.575 327.158,232.256 327.478 M230.177 328.967 C 229.750 329.279,229.518 329.652,229.662 329.795 C 229.958 330.091,231.600 329.167,231.600 328.704 C 231.600 328.236,231.033 328.341,230.177 328.967 M228.125 330.100 C 227.946 330.384,227.305 330.834,226.700 331.100 C 226.095 331.365,225.600 331.767,225.600 331.991 C 225.600 332.643,226.362 332.467,227.292 331.600 C 227.764 331.160,228.387 330.800,228.675 330.800 C 229.281 330.800,229.378 330.157,228.825 329.815 C 228.618 329.688,228.303 329.816,228.125 330.100 M223.962 332.646 C 223.671 332.997,223.020 333.440,222.516 333.632 C 222.012 333.823,221.600 334.165,221.600 334.390 C 221.600 335.043,222.361 334.867,223.292 334.000 C 223.764 333.560,224.387 333.200,224.675 333.200 C 225.270 333.200,225.382 332.560,224.845 332.228 C 224.650 332.107,224.253 332.296,223.962 332.646 M219.777 335.367 C 219.350 335.679,219.118 336.052,219.262 336.195 C 219.558 336.491,221.200 335.567,221.200 335.104 C 221.200 334.636,220.633 334.741,219.777 335.367 M217.856 336.278 C 217.405 336.728,217.581 337.200,218.200 337.200 C 218.530 337.200,218.800 337.031,218.800 336.824 C 218.800 336.319,218.175 335.958,217.856 336.278 M216.256 337.078 C 215.805 337.528,215.981 338.000,216.600 338.000 C 216.930 338.000,217.200 337.831,217.200 337.624 C 217.200 337.119,216.575 336.758,216.256 337.078 M214.177 338.567 C 213.750 338.879,213.518 339.252,213.662 339.395 C 213.958 339.691,215.600 338.767,215.600 338.304 C 215.600 337.836,215.033 337.941,214.177 338.567 M212.256 339.478 C 211.805 339.928,211.981 340.400,212.600 340.400 C 212.930 340.400,213.200 340.231,213.200 340.024 C 213.200 339.519,212.575 339.158,212.256 339.478 M210.656 340.278 C 210.205 340.728,210.381 341.200,211.000 341.200 C 211.330 341.200,211.600 341.031,211.600 340.824 C 211.600 340.319,210.975 339.958,210.656 340.278 M208.700 341.632 C 207.926 342.083,207.759 342.800,208.429 342.800 C 208.664 342.800,209.114 342.543,209.429 342.229 C 210.442 341.215,210.015 340.866,208.700 341.632 M206.656 342.678 C 206.205 343.128,206.381 343.600,207.000 343.600 C 207.330 343.600,207.600 343.431,207.600 343.224 C 207.600 342.719,206.975 342.358,206.656 342.678 M204.733 343.900 C 204.660 344.065,203.745 344.618,202.700 345.128 C 200.822 346.045,200.235 346.800,201.400 346.800 C 201.730 346.800,202.000 346.620,202.000 346.400 C 202.000 346.180,202.278 346.000,202.617 346.000 C 202.956 346.000,203.620 345.640,204.092 345.200 C 204.564 344.760,205.187 344.400,205.475 344.400 C 205.764 344.400,206.000 344.220,206.000 344.000 C 206.000 343.537,204.932 343.453,204.733 343.900 " stroke="none" fill="#eda6b1" fill-rule="evenodd"></path></g></svg>